<?xml version="1.0" encoding="UTF-8"?><svg id="Layer_1" data-name="Layer 1" xmlns="http://www.w3.org/2000/svg" viewBox="0 0 1621 494"><defs><style>.cls-1{fill:#fff;}.cls-2{fill:#252a2e;}.cls-3{fill:#f0f3f6;}.cls-4{fill:#869cb2;}.cls-5{opacity:0.5;}.cls-6{fill:#87a4c4;}.cls-7{fill:#1a4072;}.cls-8{fill:#7aa0d4;}</style></defs><title>Location_hierarchy</title><rect class="cls-1" width="1621" height="494"/><rect class="cls-1" x="7.34" y="42.35" width="724.66" height="431.63"/><path class="cls-2" d="M732.5,474H726v-1h5.5v-2.07h1ZM722,474h-6v-1h6Zm-10,0h-6v-1h6Zm-10,0h-6v-1h6Zm-10,0h-6v-1h6Zm-10,0h-6v-1h6Zm-10,0h-6v-1h6Zm-10,0h-6v-1h6Zm-10,0h-6v-1h6Zm-10,0h-6v-1h6Zm-10,0h-6v-1h6Zm-10,0h-6v-1h6Zm-10,0h-6v-1h6Zm-10,0h-6v-1h6Zm-10,0h-6v-1h6Zm-10,0h-6v-1h6Zm-10,0h-6v-1h6Zm-10,0h-6v-1h6Zm-10,0h-6v-1h6Zm-10,0h-6v-1h6Zm-10,0h-6v-1h6Zm-10,0h-6v-1h6Zm-10,0h-6v-1h6Zm-10,0h-6v-1h6Zm-10,0h-6v-1h6Zm-10,0h-6v-1h6Zm-10,0h-6v-1h6Zm-10,0h-6v-1h6Zm-10,0h-6v-1h6Zm-10,0h-6v-1h6Zm-10,0h-6v-1h6Zm-10,0h-6v-1h6Zm-10,0h-6v-1h6Zm-10,0h-6v-1h6Zm-10,0h-6v-1h6Zm-10,0h-6v-1h6Zm-10,0h-6v-1h6Zm-10,0h-6v-1h6Zm-10,0h-6v-1h6Zm-10,0h-6v-1h6Zm-10,0h-6v-1h6Zm-10,0h-6v-1h6Zm-10,0h-6v-1h6Zm-10,0h-6v-1h6Zm-10,0h-6v-1h6Zm-10,0h-6v-1h6Zm-10,0h-6v-1h6Zm-10,0h-6v-1h6Zm-10,0h-6v-1h6Zm-10,0h-6v-1h6Zm-10,0h-6v-1h6Zm-10,0h-6v-1h6Zm-10,0h-6v-1h6Zm-10,0h-6v-1h6Zm-10,0h-6v-1h6Zm-10,0h-6v-1h6Zm-10,0h-6v-1h6Zm-10,0h-6v-1h6Zm-10,0h-6v-1h6Zm-10,0h-6v-1h6Zm-10,0h-6v-1h6Zm-10,0h-6v-1h6Zm-10,0h-6v-1h6Zm-10,0H96v-1h6Zm-10,0H86v-1h6Zm-10,0H76v-1h6Zm-10,0H66v-1h6Zm-10,0H56v-1h6Zm-10,0H46v-1h6Zm-10,0H36v-1h6Zm-10,0H26v-1h6Zm-10,0H16v-1h6Zm-10,0H6.84v-1.85h1V473H12Zm-4.16-5.85h-1v-6h1Zm724.66-1.22h-1v-6h1ZM7.84,458.13h-1v-6h1Zm724.66-1.22h-1v-6h1ZM7.84,448.13h-1v-6h1Zm724.66-1.22h-1v-6h1ZM7.84,438.13h-1v-6h1Zm724.66-1.22h-1v-6h1ZM7.84,428.13h-1v-6h1Zm724.66-1.22h-1v-6h1ZM7.84,418.13h-1v-6h1Zm724.66-1.22h-1v-6h1ZM7.84,408.13h-1v-6h1Zm724.66-1.22h-1v-6h1ZM7.84,398.13h-1v-6h1Zm724.66-1.22h-1v-6h1ZM7.84,388.13h-1v-6h1Zm724.66-1.22h-1v-6h1ZM7.84,378.13h-1v-6h1Zm724.66-1.22h-1v-6h1ZM7.84,368.13h-1v-6h1Zm724.66-1.22h-1v-6h1ZM7.84,358.13h-1v-6h1Zm724.66-1.22h-1v-6h1ZM7.84,348.13h-1v-6h1Zm724.66-1.22h-1v-6h1ZM7.84,338.13h-1v-6h1Zm724.66-1.22h-1v-6h1ZM7.84,328.13h-1v-6h1Zm724.66-1.22h-1v-6h1ZM7.84,318.13h-1v-6h1Zm724.66-1.22h-1v-6h1ZM7.84,308.13h-1v-6h1Zm724.66-1.22h-1v-6h1ZM7.84,298.13h-1v-6h1Zm724.66-1.22h-1v-6h1ZM7.84,288.13h-1v-6h1Zm724.66-1.22h-1v-6h1ZM7.84,278.13h-1v-6h1Zm724.66-1.22h-1v-6h1ZM7.84,268.13h-1v-6h1Zm724.66-1.22h-1v-6h1ZM7.84,258.13h-1v-6h1Zm724.66-1.22h-1v-6h1ZM7.84,248.13h-1v-6h1Zm724.66-1.22h-1v-6h1ZM7.84,238.13h-1v-6h1Zm724.66-1.22h-1v-6h1ZM7.84,228.13h-1v-6h1Zm724.66-1.22h-1v-6h1ZM7.84,218.13h-1v-6h1Zm724.66-1.22h-1v-6h1ZM7.84,208.13h-1v-6h1Zm724.66-1.22h-1v-6h1ZM7.84,198.13h-1v-6h1Zm724.66-1.22h-1v-6h1ZM7.84,188.13h-1v-6h1Zm724.66-1.22h-1v-6h1ZM7.84,178.13h-1v-6h1Zm724.66-1.22h-1v-6h1ZM7.84,168.13h-1v-6h1Zm724.66-1.22h-1v-6h1ZM7.84,158.13h-1v-6h1Zm724.66-1.22h-1v-6h1ZM7.84,148.13h-1v-6h1Zm724.66-1.22h-1v-6h1ZM7.84,138.13h-1v-6h1Zm724.66-1.22h-1v-6h1ZM7.84,128.13h-1v-6h1Zm724.66-1.22h-1v-6h1ZM7.84,118.13h-1v-6h1Zm724.66-1.22h-1v-6h1ZM7.84,108.13h-1v-6h1Zm724.66-1.22h-1v-6h1ZM7.84,98.13h-1v-6h1ZM732.5,96.91h-1v-6h1ZM7.84,88.13h-1v-6h1ZM732.5,86.91h-1v-6h1ZM7.84,78.13h-1v-6h1ZM732.5,76.91h-1v-6h1ZM7.84,68.13h-1v-6h1ZM732.5,66.91h-1v-6h1ZM7.84,58.13h-1v-6h1ZM732.5,56.91h-1v-6h1ZM7.84,48.13h-1v-6h1ZM732.5,46.91h-1V42.35h-.44v-1h1.44Zm-5.44-4.56h-6v-1h6Zm-10,0h-6v-1h6Zm-10,0h-6v-1h6Zm-10,0h-6v-1h6Zm-10,0h-6v-1h6Zm-10,0h-6v-1h6Zm-10,0h-6v-1h6Zm-10,0h-6v-1h6Zm-10,0h-6v-1h6Zm-10,0h-6v-1h6Zm-10,0h-6v-1h6Zm-10,0h-6v-1h6Zm-10,0h-6v-1h6Zm-10,0h-6v-1h6Zm-10,0h-6v-1h6Zm-10,0h-6v-1h6Zm-10,0h-6v-1h6Zm-10,0h-6v-1h6Zm-10,0h-6v-1h6Zm-10,0h-6v-1h6Zm-10,0h-6v-1h6Zm-10,0h-6v-1h6Zm-10,0h-6v-1h6Zm-10,0h-6v-1h6Zm-10,0h-6v-1h6Zm-10,0h-6v-1h6Zm-10,0h-6v-1h6Zm-10,0h-6v-1h6Zm-10,0h-6v-1h6Zm-10,0h-6v-1h6Zm-10,0h-6v-1h6Zm-10,0h-6v-1h6Zm-10,0h-6v-1h6Zm-10,0h-6v-1h6Zm-10,0h-6v-1h6Zm-10,0h-6v-1h6Zm-10,0h-6v-1h6Zm-10,0h-6v-1h6Zm-10,0h-6v-1h6Zm-10,0h-6v-1h6Zm-10,0h-6v-1h6Zm-10,0h-6v-1h6Zm-10,0h-6v-1h6Zm-10,0h-6v-1h6Zm-10,0h-6v-1h6Zm-10,0h-6v-1h6Zm-10,0h-6v-1h6Zm-10,0h-6v-1h6Zm-10,0h-6v-1h6Zm-10,0h-6v-1h6Zm-10,0h-6v-1h6Zm-10,0h-6v-1h6Zm-10,0h-6v-1h6Zm-10,0h-6v-1h6Zm-10,0h-6v-1h6Zm-10,0h-6v-1h6Zm-10,0h-6v-1h6Zm-10,0h-6v-1h6Zm-10,0h-6v-1h6Zm-10,0h-6v-1h6Zm-10,0h-6v-1h6Zm-10,0h-6v-1h6Zm-10,0h-6v-1h6Zm-10,0h-6v-1h6Zm-10,0h-6v-1h6Zm-10,0h-6v-1h6Zm-10,0h-6v-1h6Zm-10,0h-6v-1h6Zm-10,0h-6v-1h6Zm-10,0h-6v-1h6Zm-10,0h-6v-1h6Zm-10,0h-6v-1h6Z" transform="translate(0 0.5)"/><rect class="cls-3" x="50.9" y="133.43" width="636.22" height="291.71"/><path class="cls-4" d="M687.62,425.14h-6.5v-1h5.5v-5.36h1Zm-10.5,0h-6v-1h6Zm-10,0h-6v-1h6Zm-10,0h-6v-1h6Zm-10,0h-6v-1h6Zm-10,0h-6v-1h6Zm-10,0h-6v-1h6Zm-10,0h-6v-1h6Zm-10,0h-6v-1h6Zm-10,0h-6v-1h6Zm-10,0h-6v-1h6Zm-10,0h-6v-1h6Zm-10,0h-6v-1h6Zm-10,0h-6v-1h6Zm-10,0h-6v-1h6Zm-10,0h-6v-1h6Zm-10,0h-6v-1h6Zm-10,0h-6v-1h6Zm-10,0h-6v-1h6Zm-10,0h-6v-1h6Zm-10,0h-6v-1h6Zm-10,0h-6v-1h6Zm-10,0h-6v-1h6Zm-10,0h-6v-1h6Zm-10,0h-6v-1h6Zm-10,0h-6v-1h6Zm-10,0h-6v-1h6Zm-10,0h-6v-1h6Zm-10,0h-6v-1h6Zm-10,0h-6v-1h6Zm-10,0h-6v-1h6Zm-10,0h-6v-1h6Zm-10,0h-6v-1h6Zm-10,0h-6v-1h6Zm-10,0h-6v-1h6Zm-10,0h-6v-1h6Zm-10,0h-6v-1h6Zm-10,0h-6v-1h6Zm-10,0h-6v-1h6Zm-10,0h-6v-1h6Zm-10,0h-6v-1h6Zm-10,0h-6v-1h6Zm-10,0h-6v-1h6Zm-10,0h-6v-1h6Zm-10,0h-6v-1h6Zm-10,0h-6v-1h6Zm-10,0h-6v-1h6Zm-10,0h-6v-1h6Zm-10,0h-6v-1h6Zm-10,0h-6v-1h6Zm-10,0h-6v-1h6Zm-10,0h-6v-1h6Zm-10,0h-6v-1h6Zm-10,0h-6v-1h6Zm-10,0h-6v-1h6Zm-10,0h-6v-1h6Zm-10,0h-6v-1h6Zm-10,0h-6v-1h6Zm-10,0h-6v-1h6Zm-10,0h-6v-1h6Zm-10,0h-6v-1h6Zm-10,0h-6v-1h6Zm-10,0h-6v-1h6Zm-10,0h-6v-1h6Zm-5.72-4.28h-1v-6h1Zm636.22-6.08h-1v-6h1ZM51.4,410.86h-1v-6h1Zm636.22-6.08h-1v-6h1ZM51.4,400.86h-1v-6h1Zm636.22-6.08h-1v-6h1ZM51.4,390.86h-1v-6h1Zm636.22-6.08h-1v-6h1ZM51.4,380.86h-1v-6h1Zm636.22-6.08h-1v-6h1ZM51.4,370.86h-1v-6h1Zm636.22-6.08h-1v-6h1ZM51.4,360.86h-1v-6h1Zm636.22-6.08h-1v-6h1ZM51.4,350.86h-1v-6h1Zm636.22-6.08h-1v-6h1ZM51.4,340.86h-1v-6h1Zm636.22-6.08h-1v-6h1ZM51.4,330.86h-1v-6h1Zm636.22-6.08h-1v-6h1ZM51.4,320.86h-1v-6h1Zm636.22-6.08h-1v-6h1ZM51.4,310.86h-1v-6h1Zm636.22-6.08h-1v-6h1ZM51.4,300.86h-1v-6h1Zm636.22-6.08h-1v-6h1ZM51.4,290.86h-1v-6h1Zm636.22-6.08h-1v-6h1ZM51.4,280.86h-1v-6h1Zm636.22-6.08h-1v-6h1ZM51.4,270.86h-1v-6h1Zm636.22-6.08h-1v-6h1ZM51.4,260.86h-1v-6h1Zm636.22-6.08h-1v-6h1ZM51.4,250.86h-1v-6h1Zm636.22-6.08h-1v-6h1ZM51.4,240.86h-1v-6h1Zm636.22-6.08h-1v-6h1ZM51.4,230.86h-1v-6h1Zm636.22-6.08h-1v-6h1ZM51.4,220.86h-1v-6h1Zm636.22-6.08h-1v-6h1ZM51.4,210.86h-1v-6h1Zm636.22-6.08h-1v-6h1ZM51.4,200.86h-1v-6h1Zm636.22-6.08h-1v-6h1ZM51.4,190.86h-1v-6h1Zm636.22-6.08h-1v-6h1ZM51.4,180.86h-1v-6h1Zm636.22-6.08h-1v-6h1ZM51.4,170.86h-1v-6h1Zm636.22-6.08h-1v-6h1ZM51.4,160.86h-1v-6h1Zm636.22-6.08h-1v-6h1ZM51.4,150.86h-1v-6h1Zm636.22-6.08h-1v-6h1ZM51.4,140.86h-1v-6h1Zm636.22-6.08h-1v-1.35H683v-1h4.65ZM679,133.43h-6v-1h6Zm-10,0h-6v-1h6Zm-10,0h-6v-1h6Zm-10,0h-6v-1h6Zm-10,0h-6v-1h6Zm-10,0h-6v-1h6Zm-10,0h-6v-1h6Zm-10,0h-6v-1h6Zm-10,0h-6v-1h6Zm-10,0h-6v-1h6Zm-10,0h-6v-1h6Zm-10,0h-6v-1h6Zm-10,0h-6v-1h6Zm-10,0h-6v-1h6Zm-10,0h-6v-1h6Zm-10,0h-6v-1h6Zm-10,0h-6v-1h6Zm-10,0h-6v-1h6Zm-10,0h-6v-1h6Zm-10,0h-6v-1h6Zm-10,0h-6v-1h6Zm-10,0h-6v-1h6Zm-10,0h-6v-1h6Zm-10,0h-6v-1h6Zm-10,0h-6v-1h6Zm-10,0h-6v-1h6Zm-10,0h-6v-1h6Zm-10,0h-6v-1h6Zm-10,0h-6v-1h6Zm-10,0h-6v-1h6Zm-10,0h-6v-1h6Zm-10,0h-6v-1h6Zm-10,0h-6v-1h6Zm-10,0h-6v-1h6Zm-10,0h-6v-1h6Zm-10,0h-6v-1h6Zm-10,0h-6v-1h6Zm-10,0h-6v-1h6Zm-10,0h-6v-1h6Zm-10,0h-6v-1h6Zm-10,0h-6v-1h6Zm-10,0h-6v-1h6Zm-10,0h-6v-1h6Zm-10,0h-6v-1h6Zm-10,0h-6v-1h6Zm-10,0h-6v-1h6Zm-10,0h-6v-1h6Zm-10,0h-6v-1h6Zm-10,0h-6v-1h6Zm-10,0h-6v-1h6Zm-10,0h-6v-1h6Zm-10,0h-6v-1h6Zm-10,0h-6v-1h6Zm-10,0h-6v-1h6Zm-10,0h-6v-1h6Zm-10,0h-6v-1h6Zm-10,0h-6v-1h6Zm-10,0h-6v-1h6Zm-10,0H93v-1h6Zm-10,0H83v-1h6Zm-10,0H73v-1h6Zm-10,0H63v-1h6Zm-10,0H53v-1h6Z" transform="translate(0 0.5)"/><path d="M15.17,16.9h-.09c-.3,1.42-1.73,2.5-4,2.5C7.6,19.4,5,16.71,5,11.77S7.6,4.15,11.47,4.15A5.72,5.72,0,0,1,17,7.46L15,8.6a3.64,3.64,0,0,0-3.55-2.32c-2.32,0-3.89,1.59-3.89,4.29V13c0,2.7,1.57,4.28,3.89,4.28,1.86,0,3.48-1,3.48-2.78V13.33h-3v-2h5.35v7.85H15.17Z" transform="translate(0 0.5)"/><path d="M19.83,13.65c0-3.5,1.92-5.74,5.05-5.74s4.88,2.43,4.88,5.47v.86H22.22v.36a2.7,2.7,0,0,0,2.89,2.9A3.22,3.22,0,0,0,28,15.85l1.36,1.33a5.11,5.11,0,0,1-4.48,2.22C21.75,19.4,19.83,17.16,19.83,13.65Zm2.39-1.08v.15h5.11v-.21c0-1.69-.93-2.81-2.45-2.81A2.65,2.65,0,0,0,22.22,12.57Z" transform="translate(0 0.5)"/><path d="M31.74,13.65c0-3.5,2-5.74,5.05-5.74s5.05,2.24,5.05,5.74-2,5.75-5.05,5.75S31.74,17.16,31.74,13.65Zm7.67.93V12.72c0-1.94-1.06-2.91-2.62-2.91s-2.62,1-2.62,2.91v1.86c0,1.94,1.06,2.92,2.62,2.92S39.41,16.52,39.41,14.58Z" transform="translate(0 0.5)"/><path d="M48.62,23.62c-3.59,0-5-1-5-2.64a2.06,2.06,0,0,1,1.88-2.11v-.23A1.68,1.68,0,0,1,44.27,17c0-1.14.88-1.69,1.94-1.95v-.08a3.42,3.42,0,0,1-2-3.25c0-2.24,1.59-3.76,4.38-3.76a5.14,5.14,0,0,1,2,.34V8c0-1,.46-1.56,1.44-1.56h1.69V8.25H51.45v.44a3.44,3.44,0,0,1,1.54,3c0,2.21-1.61,3.71-4.39,3.71a5.63,5.63,0,0,1-1.44-.17c-.55.19-1.06.55-1.06,1.1s.57.83,1.55.83h2.7c2.7,0,3.84,1.14,3.84,3C54.19,22.46,52.57,23.62,48.62,23.62ZM50,19.18H46.32a1.42,1.42,0,0,0-.76,1.27c0,.89.65,1.5,2.36,1.5h1.44c1.79,0,2.68-.51,2.68-1.52C52,19.67,51.53,19.18,50,19.18Zm.7-7.32v-.43c0-1.24-.78-1.85-2.13-1.85s-2.14.61-2.14,1.85v.43c0,1.24.78,1.86,2.14,1.86S50.73,13.1,50.73,11.86Z" transform="translate(0 0.5)"/><path d="M56.07,19.14v-11h2.3v2.11h.11a2.91,2.91,0,0,1,3-2.11h.61v2.22H61.2c-1.81,0-2.83.61-2.83,1.75v7Z" transform="translate(0 0.5)"/><path d="M72.21,19.14a1.9,1.9,0,0,1-2-1.83h-.1a3.07,3.07,0,0,1-3.21,2.09c-2.26,0-3.55-1.29-3.55-3.28,0-2.17,1.62-3.29,4.69-3.29h2V11.9c0-1.33-.72-2.11-2.26-2.11a2.91,2.91,0,0,0-2.62,1.5L63.78,10a4.46,4.46,0,0,1,4.14-2.13c2.83,0,4.41,1.39,4.41,3.84v5.51H73.5v1.88ZM70,15.89V14.31H68.09c-1.61,0-2.39.52-2.39,1.47v.39c0,1,.72,1.47,1.86,1.47C69,17.64,70,17,70,15.89Z" transform="translate(0 0.5)"/><path d="M75.92,8.16h2.31V10h.1a3.12,3.12,0,0,1,3.09-2.07c2.76,0,4.37,2.13,4.37,5.74s-1.61,5.75-4.37,5.75a3.16,3.16,0,0,1-3.09-2.07h-.1v6H75.92Zm7.44,6.44V12.7a2.58,2.58,0,0,0-2.64-2.81c-1.4,0-2.49.76-2.49,1.88v3.76c0,1.12,1.09,1.88,2.49,1.88A2.58,2.58,0,0,0,83.36,14.6Z" transform="translate(0 0.5)"/><path d="M88.6,3.52h2.3V10H91a3.07,3.07,0,0,1,3.09-2.07c2.23,0,3.57,1.56,3.57,4.26v7H95.35V12.45c0-1.69-.65-2.56-2.07-2.56-1.2,0-2.38.62-2.38,1.88v7.37H88.6Z" transform="translate(0 0.5)"/><path d="M107.58,8.16h2.22l-4.63,13.16a2.56,2.56,0,0,1-2.89,2.05H101V21.49h1.86l.63-1.86-4-11.47h2.3l2.2,6.46.63,2.39h.11l.69-2.39Z" transform="translate(0 0.5)"/><path d="M50.56,95.48h2.83l4,7.5h.13l4-7.5h2.7v14.74H61.84V98.94h-.11l-1.16,2.39-3.23,5.89-3.23-5.89L53,98.94h-.11v11.28H50.56Z" transform="translate(0 0.5)"/><path d="M67,104.73c0-3.51,1.92-5.75,5-5.75s4.88,2.43,4.88,5.47v.87H69.4v.36a2.69,2.69,0,0,0,2.89,2.89,3.24,3.24,0,0,0,2.9-1.64l1.35,1.33a5.1,5.1,0,0,1-4.48,2.21C68.93,110.47,67,108.23,67,104.73Zm2.39-1.08v.15h5.11v-.21c0-1.69-.93-2.81-2.45-2.81A2.64,2.64,0,0,0,69.4,103.65Z" transform="translate(0 0.5)"/><path d="M82.7,110.22a2.18,2.18,0,0,1-2.42-2.39v-6.71H78.57V99.24h.92c.76,0,1-.32,1-1.08V96.24h2.07v3h2.3v1.88h-2.3v7.22h2.13v1.88Z" transform="translate(0 0.5)"/><path d="M87.54,110.22v-11h2.3v2.11H90a2.91,2.91,0,0,1,3-2.11h.61v2.22h-.91c-1.81,0-2.83.61-2.83,1.75v7Z" transform="translate(0 0.5)"/><path d="M95,104.73c0-3.51,2-5.75,5-5.75s5,2.24,5,5.75-2,5.74-5,5.74S95,108.23,95,104.73Zm7.67.93V103.8c0-1.94-1.06-2.91-2.62-2.91s-2.62,1-2.62,2.91v1.86c0,1.94,1.06,2.91,2.62,2.91S102.62,107.6,102.62,105.66Z" transform="translate(0 0.5)"/><g id="content"><g id="Region"><g class="cls-5"><rect class="cls-6" x="91.16" y="226.05" width="341.54" height="147.39"/></g><g class="cls-5"><rect class="cls-7" x="131.09" y="268.06" width="110.88" height="63.36"/></g><g class="cls-5"><rect class="cls-7" x="282.88" y="268.06" width="110.88" height="63.36"/></g><path class="cls-1" d="M323.45,304.91H312.53v-2.13l8-10.49H313v-2.12h10.26v2.14l-8,10.49h8.24Z" transform="translate(0 0.5)"/><path class="cls-1" d="M325.2,299.42c0-3.5,2-5.74,5.05-5.74s5,2.24,5,5.74-2,5.75-5,5.75S325.2,302.93,325.2,299.42Zm7.67.93v-1.86c0-1.94-1.06-2.91-2.62-2.91s-2.62,1-2.62,2.91v1.86c0,1.94,1.05,2.92,2.62,2.92S332.87,302.29,332.87,300.35Z" transform="translate(0 0.5)"/><path class="cls-1" d="M338,304.91v-11h2.3v1.82h.11a3.06,3.06,0,0,1,3.08-2.07c2.24,0,3.57,1.56,3.57,4.26v7h-2.3v-6.67c0-1.71-.66-2.58-2.07-2.58-1.21,0-2.39.62-2.39,1.9v7.35Z" transform="translate(0 0.5)"/><path class="cls-1" d="M349.7,299.42c0-3.5,1.92-5.74,5.05-5.74s4.87,2.43,4.87,5.47V300h-7.54v.36a2.7,2.7,0,0,0,2.9,2.9,3.22,3.22,0,0,0,2.89-1.65l1.35,1.33a5.09,5.09,0,0,1-4.47,2.22C351.62,305.17,349.7,302.93,349.7,299.42Zm2.38-1.07v.14h5.12v-.21c0-1.69-.93-2.81-2.45-2.81A2.65,2.65,0,0,0,352.08,298.35Z" transform="translate(0 0.5)"/><path class="cls-1" d="M170,305.57H159.08v-2.13l8-10.49h-7.58v-2.12h10.26V293l-8,10.49H170Z" transform="translate(0 0.5)"/><path class="cls-1" d="M171.75,300.08c0-3.5,2-5.74,5.05-5.74s5,2.24,5,5.74-2,5.75-5,5.75S171.75,303.59,171.75,300.08Zm7.67.93v-1.86c0-1.94-1.06-2.91-2.62-2.91s-2.62,1-2.62,2.91V301c0,1.95,1.06,2.92,2.62,2.92S179.42,303,179.42,301Z" transform="translate(0 0.5)"/><path class="cls-1" d="M184.57,305.57v-11h2.31v1.82h.1a3.07,3.07,0,0,1,3.08-2.07c2.24,0,3.57,1.56,3.57,4.26v7h-2.3V298.9c0-1.71-.65-2.58-2.07-2.58-1.2,0-2.38.62-2.38,1.9v7.35Z" transform="translate(0 0.5)"/><path class="cls-1" d="M196.25,300.08c0-3.5,1.92-5.74,5.05-5.74s4.88,2.43,4.88,5.47v.86h-7.54V301a2.7,2.7,0,0,0,2.89,2.9,3.25,3.25,0,0,0,2.9-1.65l1.35,1.33a5.11,5.11,0,0,1-4.48,2.22C198.17,305.83,196.25,303.59,196.25,300.08Zm2.39-1.07v.14h5.11v-.21c0-1.69-.93-2.81-2.45-2.81A2.65,2.65,0,0,0,198.64,299Z" transform="translate(0 0.5)"/></g><g id="data_center" data-name="data center"><rect class="cls-8" x="472.63" y="226.05" width="175.55" height="59.4"/><path d="M504.63,248.16h5.21c3.76,0,6.23,2.45,6.23,7.37s-2.47,7.37-6.23,7.37h-5.21Zm5.21,12.62c2.2,0,3.68-1.41,3.68-4.07v-2.37c0-2.66-1.48-4.07-3.68-4.07H507v10.51Z" transform="translate(0 0.5)"/><path d="M527.1,262.9a1.9,1.9,0,0,1-2-1.84H525a3.07,3.07,0,0,1-3.21,2.09c-2.26,0-3.55-1.29-3.55-3.27,0-2.18,1.63-3.3,4.69-3.3h2v-.93c0-1.33-.72-2.11-2.26-2.11A2.91,2.91,0,0,0,520,255l-1.37-1.25a4.46,4.46,0,0,1,4.14-2.13c2.83,0,4.41,1.4,4.41,3.84V261h1.17v1.88Zm-2.18-3.26v-1.58H523c-1.61,0-2.39.53-2.39,1.48v.38c0,1,.72,1.48,1.86,1.48C523.87,261.4,524.92,260.72,524.92,259.64Z" transform="translate(0 0.5)"/><path d="M533.79,262.9a2.19,2.19,0,0,1-2.43-2.39v-6.72h-1.71v-1.87h.93c.76,0,1-.32,1-1.08v-1.92h2.07v3H536v1.87h-2.3V261h2.13v1.88Z" transform="translate(0 0.5)"/><path d="M546.68,262.9a1.9,1.9,0,0,1-2-1.84h-.11a3.05,3.05,0,0,1-3.21,2.09c-2.26,0-3.54-1.29-3.54-3.27,0-2.18,1.62-3.3,4.68-3.3h2v-.93c0-1.33-.72-2.11-2.26-2.11a2.91,2.91,0,0,0-2.62,1.5l-1.37-1.25a4.46,4.46,0,0,1,4.14-2.13c2.83,0,4.41,1.4,4.41,3.84V261H548v1.88Zm-2.18-3.26v-1.58h-1.94c-1.61,0-2.39.53-2.39,1.48v.38c0,1,.72,1.48,1.86,1.48C543.44,261.4,544.5,260.72,544.5,259.64Z" transform="translate(0 0.5)"/><path d="M554.81,257.41c0-3.51,1.81-5.75,5-5.75a4.23,4.23,0,0,1,4.24,2.7l-1.9.89a2.27,2.27,0,0,0-2.34-1.67c-1.69,0-2.56,1.17-2.56,2.85v2c0,1.69.87,2.85,2.56,2.85a2.64,2.64,0,0,0,2.58-1.82l1.75.93a4.33,4.33,0,0,1-4.33,2.79C556.62,263.15,554.81,260.91,554.81,257.41Z" transform="translate(0 0.5)"/><path d="M565.62,257.41c0-3.51,1.92-5.75,5-5.75s4.87,2.43,4.87,5.47V258H568v.36a2.7,2.7,0,0,0,2.9,2.89,3.2,3.2,0,0,0,2.89-1.65l1.35,1.33a5.09,5.09,0,0,1-4.47,2.22C567.54,263.15,565.62,260.91,565.62,257.41Zm2.38-1.08v.15h5.12v-.21c0-1.69-.93-2.81-2.45-2.81A2.65,2.65,0,0,0,568,256.33Z" transform="translate(0 0.5)"/><path d="M578.27,262.9v-11h2.3v1.81h.11a3.06,3.06,0,0,1,3.08-2.07c2.24,0,3.57,1.56,3.57,4.27v7H585v-6.68c0-1.71-.66-2.57-2.07-2.57-1.21,0-2.39.61-2.39,1.9v7.35Z" transform="translate(0 0.5)"/><path d="M593.73,262.9a2.18,2.18,0,0,1-2.43-2.39v-6.72h-1.71v-1.87h.93c.76,0,1-.32,1-1.08v-1.92h2.07v3h2.3v1.87h-2.3V261h2.13v1.88Z" transform="translate(0 0.5)"/><path d="M597.74,257.41c0-3.51,1.92-5.75,5-5.75s4.88,2.43,4.88,5.47V258h-7.54v.36a2.69,2.69,0,0,0,2.89,2.89,3.2,3.2,0,0,0,2.89-1.65l1.35,1.33a5.08,5.08,0,0,1-4.47,2.22C599.66,263.15,597.74,260.91,597.74,257.41Zm2.39-1.08v.15h5.11v-.21c0-1.69-.93-2.81-2.45-2.81A2.64,2.64,0,0,0,600.13,256.33Z" transform="translate(0 0.5)"/><path d="M610.39,262.9v-11h2.3V254h.11a2.91,2.91,0,0,1,3-2.11h.61v2.21h-.91c-1.81,0-2.83.62-2.83,1.76v7Z" transform="translate(0 0.5)"/></g><g id="data_center-2" data-name="data center"><rect class="cls-8" x="472.63" y="314.92" width="175.55" height="59.4"/><path d="M504.63,337h5.21c3.76,0,6.23,2.45,6.23,7.37s-2.47,7.37-6.23,7.37h-5.21Zm5.21,12.63c2.2,0,3.68-1.41,3.68-4.08v-2.36c0-2.66-1.48-4.08-3.68-4.08H507v10.52Z" transform="translate(0 0.5)"/><path d="M527.1,351.77a1.9,1.9,0,0,1-2-1.83H525A3.07,3.07,0,0,1,521.8,352c-2.26,0-3.55-1.29-3.55-3.28,0-2.17,1.63-3.29,4.69-3.29h2v-.93c0-1.33-.72-2.11-2.26-2.11a2.91,2.91,0,0,0-2.62,1.5l-1.37-1.25a4.46,4.46,0,0,1,4.14-2.13c2.83,0,4.41,1.39,4.41,3.84v5.51h1.17v1.88Zm-2.18-3.25v-1.58H523c-1.61,0-2.39.52-2.39,1.47v.38c0,1,.72,1.48,1.86,1.48C523.87,350.27,524.92,349.6,524.92,348.52Z" transform="translate(0 0.5)"/><path d="M533.79,351.77a2.18,2.18,0,0,1-2.43-2.38v-6.72h-1.71v-1.88h.93c.76,0,1-.32,1-1.08v-1.92h2.07v3H536v1.88h-2.3v7.22h2.13v1.88Z" transform="translate(0 0.5)"/><path d="M546.68,351.77a1.9,1.9,0,0,1-2-1.83h-.11a3.05,3.05,0,0,1-3.21,2.09c-2.26,0-3.54-1.29-3.54-3.28,0-2.17,1.62-3.29,4.68-3.29h2v-.93c0-1.33-.72-2.11-2.26-2.11a2.91,2.91,0,0,0-2.62,1.5l-1.37-1.25a4.46,4.46,0,0,1,4.14-2.13c2.83,0,4.41,1.39,4.41,3.84v5.51H548v1.88Zm-2.18-3.25v-1.58h-1.94c-1.61,0-2.39.52-2.39,1.47v.38c0,1,.72,1.48,1.86,1.48C543.44,350.27,544.5,349.6,544.5,348.52Z" transform="translate(0 0.5)"/><path d="M554.81,346.28c0-3.5,1.81-5.74,5-5.74a4.22,4.22,0,0,1,4.24,2.7l-1.9.89a2.26,2.26,0,0,0-2.34-1.67c-1.69,0-2.56,1.16-2.56,2.85v2c0,1.69.87,2.85,2.56,2.85a2.64,2.64,0,0,0,2.58-1.81l1.75.93a4.34,4.34,0,0,1-4.33,2.79C556.62,352,554.81,349.79,554.81,346.28Z" transform="translate(0 0.5)"/><path d="M565.62,346.28c0-3.5,1.92-5.74,5-5.74s4.87,2.43,4.87,5.47v.86H568v.36a2.7,2.7,0,0,0,2.9,2.89,3.21,3.21,0,0,0,2.89-1.64l1.35,1.33a5.09,5.09,0,0,1-4.47,2.22C567.54,352,565.62,349.79,565.62,346.28ZM568,345.2v.15h5.12v-.21c0-1.69-.93-2.81-2.45-2.81A2.65,2.65,0,0,0,568,345.2Z" transform="translate(0 0.5)"/><path d="M578.27,351.77v-11h2.3v1.82h.11a3,3,0,0,1,3.08-2.07c2.24,0,3.57,1.56,3.57,4.26v7H585V345.1c0-1.71-.66-2.58-2.07-2.58-1.21,0-2.39.62-2.39,1.9v7.35Z" transform="translate(0 0.5)"/><path d="M593.73,351.77a2.17,2.17,0,0,1-2.43-2.38v-6.72h-1.71v-1.88h.93c.76,0,1-.32,1-1.08v-1.92h2.07v3h2.3v1.88h-2.3v7.22h2.13v1.88Z" transform="translate(0 0.5)"/><path d="M597.74,346.28c0-3.5,1.92-5.74,5-5.74s4.88,2.43,4.88,5.47v.86h-7.54v.36a2.69,2.69,0,0,0,2.89,2.89,3.21,3.21,0,0,0,2.89-1.64l1.35,1.33a5.08,5.08,0,0,1-4.47,2.22C599.66,352,597.74,349.79,597.74,346.28Zm2.39-1.08v.15h5.11v-.21c0-1.69-.93-2.81-2.45-2.81A2.64,2.64,0,0,0,600.13,345.2Z" transform="translate(0 0.5)"/><path d="M610.39,351.77v-11h2.3v2.11h.11a2.91,2.91,0,0,1,3-2.11h.61V343h-.91c-1.81,0-2.83.61-2.83,1.75v7Z" transform="translate(0 0.5)"/></g><path d="M93.87,201.3H91.48V186.56h6.36c2.64,0,4.26,1.71,4.26,4.43a3.9,3.9,0,0,1-2.87,4.1l3.19,6.21H99.76l-3-6H93.87Zm3.8-8a1.72,1.72,0,0,0,1.92-1.84v-1a1.71,1.71,0,0,0-1.92-1.83h-3.8v4.69Z" transform="translate(0 0.5)"/><path d="M104.26,195.81c0-3.51,1.92-5.75,5-5.75s4.88,2.43,4.88,5.47v.87h-7.54v.36a2.7,2.7,0,0,0,2.9,2.89,3.2,3.2,0,0,0,2.89-1.65l1.35,1.33a5.1,5.1,0,0,1-4.48,2.22C106.18,201.55,104.26,199.31,104.26,195.81Zm2.38-1.08v.15h5.11v-.21c0-1.69-.92-2.81-2.45-2.81A2.64,2.64,0,0,0,106.64,194.73Z" transform="translate(0 0.5)"/><path d="M121,205.77c-3.59,0-5-1-5-2.64a2.06,2.06,0,0,1,1.88-2.11v-.23a1.68,1.68,0,0,1-1.25-1.69c0-1.14.89-1.69,1.94-1.94v-.09a3.43,3.43,0,0,1-2-3.25c0-2.24,1.58-3.76,4.37-3.76a5.39,5.39,0,0,1,2,.34v-.3c0-1,.46-1.56,1.43-1.56H126v1.86h-2.24v.44a3.45,3.45,0,0,1,1.54,3c0,2.22-1.6,3.72-4.39,3.72a6.18,6.18,0,0,1-1.44-.17c-.54.19-1,.55-1,1.1s.57.82,1.54.82h2.7c2.71,0,3.85,1.14,3.85,3C126.54,204.61,124.91,205.77,121,205.77Zm1.42-4.43h-3.72a1.41,1.41,0,0,0-.76,1.27c0,.88.65,1.5,2.37,1.5h1.43c1.8,0,2.68-.51,2.68-1.53C124.38,201.82,123.88,201.34,122.38,201.34Zm.69-7.33v-.42c0-1.25-.78-1.86-2.13-1.86s-2.13.61-2.13,1.86V194c0,1.25.78,1.86,2.13,1.86S123.07,195.26,123.07,194Z" transform="translate(0 0.5)"/><path d="M128.21,187.15v-.36c0-.7.42-1.21,1.37-1.21s1.35.51,1.35,1.21v.36c0,.69-.4,1.2-1.35,1.2S128.21,187.84,128.21,187.15Zm.21,3.17h2.3v11h-2.3Z" transform="translate(0 0.5)"/><path d="M133.44,195.81c0-3.51,2-5.75,5.05-5.75s5,2.24,5,5.75-2,5.74-5,5.74S133.44,199.31,133.44,195.81Zm7.67.93v-1.86c0-1.95-1.06-2.92-2.62-2.92s-2.62,1-2.62,2.92v1.86c0,1.94,1.06,2.91,2.62,2.91S141.11,198.68,141.11,196.74Z" transform="translate(0 0.5)"/><path d="M146.26,201.3v-11h2.3v1.81h.11a3.06,3.06,0,0,1,3.08-2.07c2.24,0,3.57,1.56,3.57,4.27v7H153v-6.68c0-1.71-.65-2.57-2.07-2.57-1.2,0-2.39.61-2.39,1.9v7.35Z" transform="translate(0 0.5)"/><path d="M473,186.56h5.21c3.76,0,6.23,2.45,6.23,7.37s-2.47,7.37-6.23,7.37H473Zm5.21,12.63c2.2,0,3.68-1.42,3.68-4.08v-2.37c0-2.66-1.48-4.07-3.68-4.07h-2.83v10.52Z" transform="translate(0 0.5)"/><path d="M495.42,201.3a1.9,1.9,0,0,1-2-1.84h-.1a3.06,3.06,0,0,1-3.21,2.09c-2.26,0-3.55-1.29-3.55-3.27,0-2.18,1.63-3.3,4.69-3.3h2v-.93c0-1.33-.71-2.11-2.26-2.11a2.91,2.91,0,0,0-2.61,1.5L487,192.19a4.46,4.46,0,0,1,4.14-2.13c2.83,0,4.42,1.4,4.42,3.85v5.51h1.16v1.88ZM493.24,198v-1.58H491.3c-1.6,0-2.39.53-2.39,1.48v.38c0,1,.72,1.48,1.86,1.48C492.19,199.8,493.24,199.12,493.24,198Z" transform="translate(0 0.5)"/><path d="M502.11,201.3a2.18,2.18,0,0,1-2.42-2.39v-6.72H498v-1.87h.93c.76,0,1-.32,1-1.08v-1.92H502v3h2.3v1.87H502v7.23h2.13v1.88Z" transform="translate(0 0.5)"/><path d="M515,201.3a1.9,1.9,0,0,1-2-1.84h-.1a3.07,3.07,0,0,1-3.21,2.09c-2.26,0-3.55-1.29-3.55-3.27,0-2.18,1.62-3.3,4.69-3.3h2v-.93c0-1.33-.72-2.11-2.26-2.11a2.93,2.93,0,0,0-2.62,1.5l-1.37-1.25a4.46,4.46,0,0,1,4.14-2.13c2.83,0,4.41,1.4,4.41,3.85v5.51h1.16v1.88ZM512.82,198v-1.58h-1.94c-1.61,0-2.39.53-2.39,1.48v.38c0,1,.72,1.48,1.86,1.48C511.77,199.8,512.82,199.12,512.82,198Z" transform="translate(0 0.5)"/><path d="M523.13,195.81c0-3.51,1.81-5.75,5-5.75a4.25,4.25,0,0,1,4.25,2.71l-1.9.88a2.29,2.29,0,0,0-2.35-1.67c-1.69,0-2.55,1.17-2.55,2.85v2c0,1.69.86,2.85,2.55,2.85a2.64,2.64,0,0,0,2.58-1.82l1.75.93a4.33,4.33,0,0,1-4.33,2.79C524.94,201.55,523.13,199.31,523.13,195.81Z" transform="translate(0 0.5)"/><path d="M533.94,195.81c0-3.51,1.92-5.75,5-5.75s4.88,2.43,4.88,5.47v.87h-7.54v.36a2.69,2.69,0,0,0,2.89,2.89,3.2,3.2,0,0,0,2.89-1.65l1.35,1.33a5.08,5.08,0,0,1-4.47,2.22C535.86,201.55,533.94,199.31,533.94,195.81Zm2.39-1.08v.15h5.11v-.21c0-1.69-.93-2.81-2.45-2.81A2.64,2.64,0,0,0,536.33,194.73Z" transform="translate(0 0.5)"/><path d="M546.59,201.3v-11h2.3v1.81H549a3.06,3.06,0,0,1,3.08-2.07c2.24,0,3.57,1.56,3.57,4.27v7h-2.3v-6.68c0-1.71-.66-2.57-2.07-2.57-1.21,0-2.39.61-2.39,1.9v7.35Z" transform="translate(0 0.5)"/><path d="M562.05,201.3a2.19,2.19,0,0,1-2.43-2.39v-6.72h-1.71v-1.87h.93c.76,0,1-.32,1-1.08v-1.92h2.07v3h2.3v1.87h-2.3v7.23h2.14v1.88Z" transform="translate(0 0.5)"/><path d="M566.06,195.81c0-3.51,1.92-5.75,5.05-5.75s4.88,2.43,4.88,5.47v.87h-7.54v.36a2.69,2.69,0,0,0,2.89,2.89,3.2,3.2,0,0,0,2.89-1.65l1.36,1.33a5.11,5.11,0,0,1-4.48,2.22C568,201.55,566.06,199.31,566.06,195.81Zm2.39-1.08v.15h5.11v-.21c0-1.69-.93-2.81-2.45-2.81A2.64,2.64,0,0,0,568.45,194.73Z" transform="translate(0 0.5)"/><path d="M578.71,201.3v-11H581v2.11h.11a2.91,2.91,0,0,1,3-2.11h.61v2.21h-.91c-1.81,0-2.83.62-2.83,1.76v7Z" transform="translate(0 0.5)"/><path d="M586,199.48l1.48-1.35a3.87,3.87,0,0,0,3.1,1.56c1.33,0,2-.55,2-1.48,0-.69-.43-1.22-1.57-1.37l-1-.13c-2.24-.27-3.61-1.24-3.61-3.27s1.67-3.38,4.08-3.38a5,5,0,0,1,4.09,1.75l-1.41,1.36a3.48,3.48,0,0,0-2.68-1.25c-1.27,0-1.86.55-1.86,1.37s.52,1.23,1.69,1.42l1,.12c2.41.36,3.48,1.42,3.48,3.19,0,2.12-1.71,3.53-4.35,3.53A5.28,5.28,0,0,1,586,199.48Z" transform="translate(0 0.5)"/></g></svg>
