<svg id="Layer_1" data-name="Layer 1" xmlns="http://www.w3.org/2000/svg" viewBox="0 0 552.13 358.29"><defs><style>.cls-1,.cls-10{fill:#fff;}.cls-1{stroke:#252a2e;}.cls-1,.cls-2{stroke-miterlimit:10;stroke-dasharray:6 4;}.cls-2{fill:#f0f3f6;stroke:#869cb2;}.cls-10,.cls-16,.cls-3,.cls-6{font-size:16px;font-family:IBMPlexSans-Medium, IBM Plex Sans;font-weight:500;}.cls-4,.cls-6{letter-spacing:0.01em;}.cls-5{letter-spacing:0.01em;}.cls-10,.cls-7{letter-spacing:0em;}.cls-8{fill:#87a4c4;}.cls-8,.cls-9{opacity:0.5;}.cls-9{fill:#1a4072;}.cls-11{fill:#7aa0d4;}.cls-12{letter-spacing:0em;}.cls-13{letter-spacing:0em;}.cls-14{letter-spacing:0.01em;}.cls-15{letter-spacing:0em;}.cls-16{letter-spacing:-0.01em;}</style></defs><title>Location-Illustration expanded</title><rect class="cls-1" x="2.63" y="30.79" width="549" height="327"/><rect class="cls-2" x="35.63" y="99.79" width="482" height="221"/><text class="cls-3" transform="translate(0 13.58)"><tspan class="cls-4">Geog</tspan><tspan x="38.3" y="0">r</tspan><tspan class="cls-5" x="44.43" y="0">ap</tspan><tspan x="62.94" y="0">h</tspan><tspan class="cls-4" x="72.22" y="0">y</tspan></text><text class="cls-6" transform="translate(34 82.58)">Met<tspan class="cls-7" x="28.14" y="0">r</tspan><tspan x="34.32" y="0">o</tspan></text><g id="content"><g id="Region"><rect class="cls-8" x="65.13" y="169.96" width="258.75" height="111.66"/><rect class="cls-9" x="95.38" y="201.79" width="84" height="48"/><rect class="cls-9" x="210.38" y="201.79" width="84" height="48"/><text class="cls-10" transform="translate(232.25 230.08)">Z<tspan class="cls-4" x="9.5" y="0">one</tspan></text><text class="cls-10" transform="translate(116 230.58)">Z<tspan class="cls-4" x="9.5" y="0">one</tspan></text></g><g id="data_center" data-name="data center"><rect class="cls-11" x="355.13" y="169.96" width="133" height="45"/><text class="cls-6" transform="translate(378 198.25)">D<tspan class="cls-12" x="11.06" y="0">a</tspan><tspan x="19.92" y="0">ta </tspan><tspan class="cls-13" x="38.7" y="0">c</tspan><tspan class="cls-14" x="46.9" y="0">en</tspan><tspan class="cls-15" x="65.33" y="0">t</tspan><tspan x="71.23" y="0">er</tspan></text></g><g id="data_center-2" data-name="data center"><rect class="cls-11" x="355.13" y="237.29" width="133" height="45"/><text class="cls-6" transform="translate(378 265.58)">D<tspan class="cls-12" x="11.06" y="0">a</tspan><tspan x="19.92" y="0">ta </tspan><tspan class="cls-13" x="38.7" y="0">c</tspan><tspan class="cls-14" x="46.9" y="0">en</tspan><tspan class="cls-15" x="65.33" y="0">t</tspan><tspan x="71.23" y="0">er</tspan></text></g><text class="cls-16" transform="translate(65 151.58)">R<tspan class="cls-4" x="10.37" y="0">egion</tspan></text><text class="cls-6" transform="translate(354 151.58)">D<tspan class="cls-12" x="11.06" y="0">a</tspan><tspan x="19.92" y="0">ta </tspan><tspan class="cls-13" x="38.7" y="0">c</tspan><tspan class="cls-14" x="46.9" y="0">en</tspan><tspan class="cls-15" x="65.33" y="0">t</tspan><tspan x="71.23" y="0">ers</tspan></text></g></svg>