<?xml version="1.0" encoding="utf-8"?>
<svg id="Layer_1" data-name="Layer 1" xmlns="http://www.w3.org/2000/svg" viewBox="0 0 1326.37 800.61"><defs><style>.cls-1{fill:#fff;}.cls-2{fill:#252a2e;}.cls-3{fill:#f0f3f6;}.cls-4{fill:#869cb2;}.cls-5{fill:#d9e0ed;}.cls-6{fill:#394e77;}.cls-7{opacity:0.5;}.cls-8{fill:#1a4072;}</style></defs><title>Location-Illustration revised</title><rect class="cls-1" x="2.52" y="53.98" width="1323.34" height="746.12"/><path class="cls-2" d="M1331,824.33h-6v-1h6Zm-10,0h-6v-1h6Zm-10,0h-6v-1h6Zm-10,0h-6v-1h6Zm-10,0h-6v-1h6Zm-10,0h-6v-1h6Zm-10,0h-6v-1h6Zm-10,0h-6v-1h6Zm-10,0h-6v-1h6Zm-10,0h-6v-1h6Zm-10,0h-6v-1h6Zm-10,0h-6v-1h6Zm-10,0h-6v-1h6Zm-10,0h-6v-1h6Zm-10,0h-6v-1h6Zm-10,0h-6v-1h6Zm-10,0h-6v-1h6Zm-10,0h-6v-1h6Zm-10,0h-6v-1h6Zm-10,0h-6v-1h6Zm-10,0h-6v-1h6Zm-10,0h-6v-1h6Zm-10,0h-6v-1h6Zm-10,0h-6v-1h6Zm-10,0h-6v-1h6Zm-10,0h-6v-1h6Zm-10,0h-6v-1h6Zm-10,0h-6v-1h6Zm-10,0h-6v-1h6Zm-10,0h-6v-1h6Zm-10,0h-6v-1h6Zm-10,0h-6v-1h6Zm-10,0h-6v-1h6Zm-10,0h-6v-1h6Zm-10,0h-6v-1h6Zm-10,0h-6v-1h6Zm-10,0h-6v-1h6Zm-10,0h-6v-1h6Zm-10,0h-6v-1h6Zm-10,0h-6v-1h6Zm-10,0h-6v-1h6Zm-10,0h-6v-1h6Zm-10,0h-6v-1h6Zm-10,0h-6v-1h6Zm-10,0h-6v-1h6Zm-10,0h-6v-1h6Zm-10,0h-6v-1h6Zm-10,0h-6v-1h6Zm-10,0h-6v-1h6Zm-10,0h-6v-1h6Zm-10,0h-6v-1h6Zm-10,0h-6v-1h6Zm-10,0h-6v-1h6Zm-10,0h-6v-1h6Zm-10,0h-6v-1h6Zm-10,0h-6v-1h6Zm-10,0h-6v-1h6Zm-10,0h-6v-1h6Zm-10,0h-6v-1h6Zm-10,0h-6v-1h6Zm-10,0h-6v-1h6Zm-10,0h-6v-1h6Zm-10,0h-6v-1h6Zm-10,0h-6v-1h6Zm-10,0h-6v-1h6Zm-10,0h-6v-1h6Zm-10,0h-6v-1h6Zm-10,0h-6v-1h6Zm-10,0h-6v-1h6Zm-10,0h-6v-1h6Zm-10,0h-6v-1h6Zm-10,0h-6v-1h6Zm-10,0h-6v-1h6Zm-10,0h-6v-1h6Zm-10,0h-6v-1h6Zm-10,0h-6v-1h6Zm-10,0h-6v-1h6Zm-10,0h-6v-1h6Zm-10,0h-6v-1h6Zm-10,0h-6v-1h6Zm-10,0h-6v-1h6Zm-10,0h-6v-1h6Zm-10,0h-6v-1h6Zm-10,0h-6v-1h6Zm-10,0h-6v-1h6Zm-10,0h-6v-1h6Zm-10,0h-6v-1h6Zm-10,0h-6v-1h6Zm-10,0h-6v-1h6Zm-10,0h-6v-1h6Zm-10,0h-6v-1h6Zm-10,0h-6v-1h6Zm-10,0h-6v-1h6Zm-10,0h-6v-1h6Zm-10,0h-6v-1h6Zm-10,0h-6v-1h6Zm-10,0h-6v-1h6Zm-10,0h-6v-1h6Zm-10,0h-6v-1h6Zm-10,0h-6v-1h6Zm-10,0h-6v-1h6Zm-10,0h-6v-1h6Zm-10,0h-6v-1h6Zm-10,0h-6v-1h6Zm-10,0h-6v-1h6Zm-10,0h-6v-1h6Zm-10,0h-6v-1h6Zm-10,0h-6v-1h6Zm-10,0h-6v-1h6Zm-10,0h-6v-1h6Zm-10,0h-6v-1h6Zm-10,0h-6v-1h6Zm-10,0h-6v-1h6Zm-10,0h-6v-1h6Zm-10,0h-6v-1h6Zm-10,0h-6v-1h6Zm-10,0h-6v-1h6Zm-10,0h-6v-1h6Zm-10,0h-6v-1h6Zm-10,0h-6v-1h6Zm-10,0h-6v-1h6Zm-10,0h-6v-1h6Zm-10,0h-6v-1h6Zm-10,0H95v-1h6Zm-10,0H85v-1h6Zm-10,0H75v-1h6Zm-10,0H65v-1h6Zm-10,0H55v-1h6Zm-10,0H45v-1h6Zm-10,0H35v-1h6Zm-10,0H25v-1h6Zm-10,0H15v-1h6Zm-10,0H7.16v-3.16h1v2.16H11Zm1320.5-3.44h-1v-6h1ZM8.16,817.17h-1v-6h1Zm1323.34-6.28h-1v-6h1ZM8.16,807.17h-1v-6h1Zm1323.34-6.28h-1v-6h1ZM8.16,797.17h-1v-6h1Zm1323.34-6.28h-1v-6h1ZM8.16,787.17h-1v-6h1Zm1323.34-6.28h-1v-6h1ZM8.16,777.17h-1v-6h1Zm1323.34-6.28h-1v-6h1ZM8.16,767.17h-1v-6h1Zm1323.34-6.28h-1v-6h1ZM8.16,757.17h-1v-6h1Zm1323.34-6.28h-1v-6h1ZM8.16,747.17h-1v-6h1Zm1323.34-6.28h-1v-6h1ZM8.16,737.17h-1v-6h1Zm1323.34-6.28h-1v-6h1ZM8.16,727.17h-1v-6h1Zm1323.34-6.28h-1v-6h1ZM8.16,717.17h-1v-6h1Zm1323.34-6.28h-1v-6h1ZM8.16,707.17h-1v-6h1Zm1323.34-6.28h-1v-6h1ZM8.16,697.17h-1v-6h1Zm1323.34-6.28h-1v-6h1ZM8.16,687.17h-1v-6h1Zm1323.34-6.28h-1v-6h1ZM8.16,677.17h-1v-6h1Zm1323.34-6.28h-1v-6h1ZM8.16,667.17h-1v-6h1Zm1323.34-6.28h-1v-6h1ZM8.16,657.17h-1v-6h1Zm1323.34-6.28h-1v-6h1ZM8.16,647.17h-1v-6h1Zm1323.34-6.28h-1v-6h1ZM8.16,637.17h-1v-6h1Zm1323.34-6.28h-1v-6h1ZM8.16,627.17h-1v-6h1Zm1323.34-6.28h-1v-6h1ZM8.16,617.17h-1v-6h1Zm1323.34-6.28h-1v-6h1ZM8.16,607.17h-1v-6h1Zm1323.34-6.28h-1v-6h1ZM8.16,597.17h-1v-6h1Zm1323.34-6.28h-1v-6h1ZM8.16,587.17h-1v-6h1Zm1323.34-6.28h-1v-6h1ZM8.16,577.17h-1v-6h1Zm1323.34-6.28h-1v-6h1ZM8.16,567.17h-1v-6h1Zm1323.34-6.28h-1v-6h1ZM8.16,557.17h-1v-6h1Zm1323.34-6.28h-1v-6h1ZM8.16,547.17h-1v-6h1Zm1323.34-6.28h-1v-6h1ZM8.16,537.17h-1v-6h1Zm1323.34-6.28h-1v-6h1ZM8.16,527.17h-1v-6h1Zm1323.34-6.28h-1v-6h1ZM8.16,517.17h-1v-6h1Zm1323.34-6.28h-1v-6h1ZM8.16,507.17h-1v-6h1Zm1323.34-6.28h-1v-6h1ZM8.16,497.17h-1v-6h1Zm1323.34-6.28h-1v-6h1ZM8.16,487.17h-1v-6h1Zm1323.34-6.28h-1v-6h1ZM8.16,477.17h-1v-6h1Zm1323.34-6.28h-1v-6h1ZM8.16,467.17h-1v-6h1Zm1323.34-6.28h-1v-6h1ZM8.16,457.17h-1v-6h1Zm1323.34-6.28h-1v-6h1ZM8.16,447.17h-1v-6h1Zm1323.34-6.28h-1v-6h1ZM8.16,437.17h-1v-6h1Zm1323.34-6.28h-1v-6h1ZM8.16,427.17h-1v-6h1Zm1323.34-6.28h-1v-6h1ZM8.16,417.17h-1v-6h1Zm1323.34-6.28h-1v-6h1ZM8.16,407.17h-1v-6h1Zm1323.34-6.28h-1v-6h1ZM8.16,397.17h-1v-6h1Zm1323.34-6.28h-1v-6h1ZM8.16,387.17h-1v-6h1Zm1323.34-6.28h-1v-6h1ZM8.16,377.17h-1v-6h1Zm1323.34-6.28h-1v-6h1ZM8.16,367.17h-1v-6h1Zm1323.34-6.28h-1v-6h1ZM8.16,357.17h-1v-6h1Zm1323.34-6.28h-1v-6h1ZM8.16,347.17h-1v-6h1Zm1323.34-6.28h-1v-6h1ZM8.16,337.17h-1v-6h1Zm1323.34-6.28h-1v-6h1ZM8.16,327.17h-1v-6h1Zm1323.34-6.28h-1v-6h1ZM8.16,317.17h-1v-6h1Zm1323.34-6.28h-1v-6h1ZM8.16,307.17h-1v-6h1Zm1323.34-6.28h-1v-6h1ZM8.16,297.17h-1v-6h1Zm1323.34-6.28h-1v-6h1ZM8.16,287.17h-1v-6h1Zm1323.34-6.28h-1v-6h1ZM8.16,277.17h-1v-6h1Zm1323.34-6.28h-1v-6h1ZM8.16,267.17h-1v-6h1Zm1323.34-6.28h-1v-6h1ZM8.16,257.17h-1v-6h1Zm1323.34-6.28h-1v-6h1ZM8.16,247.17h-1v-6h1Zm1323.34-6.28h-1v-6h1ZM8.16,237.17h-1v-6h1Zm1323.34-6.28h-1v-6h1ZM8.16,227.17h-1v-6h1Zm1323.34-6.28h-1v-6h1ZM8.16,217.17h-1v-6h1Zm1323.34-6.28h-1v-6h1ZM8.16,207.17h-1v-6h1Zm1323.34-6.28h-1v-6h1ZM8.16,197.17h-1v-6h1Zm1323.34-6.28h-1v-6h1ZM8.16,187.17h-1v-6h1Zm1323.34-6.28h-1v-6h1ZM8.16,177.17h-1v-6h1Zm1323.34-6.28h-1v-6h1ZM8.16,167.17h-1v-6h1Zm1323.34-6.28h-1v-6h1ZM8.16,157.17h-1v-6h1Zm1323.34-6.28h-1v-6h1ZM8.16,147.17h-1v-6h1Zm1323.34-6.28h-1v-6h1ZM8.16,137.17h-1v-6h1Zm1323.34-6.28h-1v-6h1ZM8.16,127.17h-1v-6h1Zm1323.34-6.28h-1v-6h1ZM8.16,117.17h-1v-6h1Zm1323.34-6.28h-1v-6h1ZM8.16,107.17h-1v-6h1Zm1323.34-6.28h-1v-6h1ZM8.16,97.17h-1v-6h1ZM1331.5,90.89h-1v-6h1ZM8.16,87.17h-1v-6h1ZM1331.5,80.89h-1V78.2h-2.31v-1h3.31Zm-7.31-2.69h-6v-1h6Zm-10,0h-6v-1h6Zm-10,0h-6v-1h6Zm-10,0h-6v-1h6Zm-10,0h-6v-1h6Zm-10,0h-6v-1h6Zm-10,0h-6v-1h6Zm-10,0h-6v-1h6Zm-10,0h-6v-1h6Zm-10,0h-6v-1h6Zm-10,0h-6v-1h6Zm-10,0h-6v-1h6Zm-10,0h-6v-1h6Zm-10,0h-6v-1h6Zm-10,0h-6v-1h6Zm-10,0h-6v-1h6Zm-10,0h-6v-1h6Zm-10,0h-6v-1h6Zm-10,0h-6v-1h6Zm-10,0h-6v-1h6Zm-10,0h-6v-1h6Zm-10,0h-6v-1h6Zm-10,0h-6v-1h6Zm-10,0h-6v-1h6Zm-10,0h-6v-1h6Zm-10,0h-6v-1h6Zm-10,0h-6v-1h6Zm-10,0h-6v-1h6Zm-10,0h-6v-1h6Zm-10,0h-6v-1h6Zm-10,0h-6v-1h6Zm-10,0h-6v-1h6Zm-10,0h-6v-1h6Zm-10,0h-6v-1h6Zm-10,0h-6v-1h6Zm-10,0h-6v-1h6Zm-10,0h-6v-1h6Zm-10,0h-6v-1h6Zm-10,0h-6v-1h6Zm-10,0h-6v-1h6Zm-10,0h-6v-1h6Zm-10,0h-6v-1h6Zm-10,0h-6v-1h6Zm-10,0h-6v-1h6Zm-10,0h-6v-1h6Zm-10,0h-6v-1h6Zm-10,0h-6v-1h6Zm-10,0h-6v-1h6Zm-10,0h-6v-1h6Zm-10,0h-6v-1h6Zm-10,0h-6v-1h6Zm-10,0h-6v-1h6Zm-10,0h-6v-1h6Zm-10,0h-6v-1h6Zm-10,0h-6v-1h6Zm-10,0h-6v-1h6Zm-10,0h-6v-1h6Zm-10,0h-6v-1h6Zm-10,0h-6v-1h6Zm-10,0h-6v-1h6Zm-10,0h-6v-1h6Zm-10,0h-6v-1h6Zm-10,0h-6v-1h6Zm-10,0h-6v-1h6Zm-10,0h-6v-1h6Zm-10,0h-6v-1h6Zm-10,0h-6v-1h6Zm-10,0h-6v-1h6Zm-10,0h-6v-1h6Zm-10,0h-6v-1h6Zm-10,0h-6v-1h6Zm-10,0h-6v-1h6Zm-10,0h-6v-1h6Zm-10,0h-6v-1h6Zm-10,0h-6v-1h6Zm-10,0h-6v-1h6Zm-10,0h-6v-1h6Zm-10,0h-6v-1h6Zm-10,0h-6v-1h6Zm-10,0h-6v-1h6Zm-10,0h-6v-1h6Zm-10,0h-6v-1h6Zm-10,0h-6v-1h6Zm-10,0h-6v-1h6Zm-10,0h-6v-1h6Zm-10,0h-6v-1h6Zm-10,0h-6v-1h6Zm-10,0h-6v-1h6Zm-10,0h-6v-1h6Zm-10,0h-6v-1h6Zm-10,0h-6v-1h6Zm-10,0h-6v-1h6Zm-10,0h-6v-1h6Zm-10,0h-6v-1h6Zm-10,0h-6v-1h6Zm-10,0h-6v-1h6Zm-10,0h-6v-1h6Zm-10,0h-6v-1h6Zm-10,0h-6v-1h6Zm-10,0h-6v-1h6Zm-10,0h-6v-1h6Zm-10,0h-6v-1h6Zm-10,0h-6v-1h6Zm-10,0h-6v-1h6Zm-10,0h-6v-1h6Zm-10,0h-6v-1h6Zm-10,0h-6v-1h6Zm-10,0h-6v-1h6Zm-10,0h-6v-1h6Zm-10,0h-6v-1h6Zm-10,0h-6v-1h6Zm-10,0h-6v-1h6Zm-10,0h-6v-1h6Zm-10,0h-6v-1h6Zm-10,0h-6v-1h6Zm-10,0h-6v-1h6Zm-10,0h-6v-1h6Zm-10,0h-6v-1h6Zm-10,0h-6v-1h6Zm-10,0h-6v-1h6Zm-10,0h-6v-1h6Zm-10,0h-6v-1h6Zm-10,0h-6v-1h6Zm-10,0h-6v-1h6Zm-10,0h-6v-1h6Zm-10,0h-6v-1h6Zm-10,0h-6v-1h6Zm-10,0h-6v-1h6Zm-10,0h-6v-1h6Zm-10,0h-6v-1h6Zm-10,0h-6v-1h6Zm-10,0h-6v-1h6Z" transform="translate(-5.13 -23.72)"/><rect class="cls-3" x="50.04" y="163.07" width="1226.74" height="579.23"/><path class="cls-4" d="M1282.41,766.51h-6.5v-1h5.5v-1.43h1Zm-10.5,0h-6v-1h6Zm-10,0h-6v-1h6Zm-10,0h-6v-1h6Zm-10,0h-6v-1h6Zm-10,0h-6v-1h6Zm-10,0h-6v-1h6Zm-10,0h-6v-1h6Zm-10,0h-6v-1h6Zm-10,0h-6v-1h6Zm-10,0h-6v-1h6Zm-10,0h-6v-1h6Zm-10,0h-6v-1h6Zm-10,0h-6v-1h6Zm-10,0h-6v-1h6Zm-10,0h-6v-1h6Zm-10,0h-6v-1h6Zm-10,0h-6v-1h6Zm-10,0h-6v-1h6Zm-10,0h-6v-1h6Zm-10,0h-6v-1h6Zm-10,0h-6v-1h6Zm-10,0h-6v-1h6Zm-10,0h-6v-1h6Zm-10,0h-6v-1h6Zm-10,0h-6v-1h6Zm-10,0h-6v-1h6Zm-10,0h-6v-1h6Zm-10,0h-6v-1h6Zm-10,0h-6v-1h6Zm-10,0h-6v-1h6Zm-10,0h-6v-1h6Zm-10,0h-6v-1h6Zm-10,0h-6v-1h6Zm-10,0h-6v-1h6Zm-10,0h-6v-1h6Zm-10,0h-6v-1h6Zm-10,0h-6v-1h6Zm-10,0h-6v-1h6Zm-10,0h-6v-1h6Zm-10,0h-6v-1h6Zm-10,0h-6v-1h6Zm-10,0h-6v-1h6Zm-10,0h-6v-1h6Zm-10,0h-6v-1h6Zm-10,0h-6v-1h6Zm-10,0h-6v-1h6Zm-10,0h-6v-1h6Zm-10,0h-6v-1h6Zm-10,0h-6v-1h6Zm-10,0h-6v-1h6Zm-10,0h-6v-1h6Zm-10,0h-6v-1h6Zm-10,0h-6v-1h6Zm-10,0h-6v-1h6Zm-10,0h-6v-1h6Zm-10,0h-6v-1h6Zm-10,0h-6v-1h6Zm-10,0h-6v-1h6Zm-10,0h-6v-1h6Zm-10,0h-6v-1h6Zm-10,0h-6v-1h6Zm-10,0h-6v-1h6Zm-10,0h-6v-1h6Zm-10,0h-6v-1h6Zm-10,0h-6v-1h6Zm-10,0h-6v-1h6Zm-10,0h-6v-1h6Zm-10,0h-6v-1h6Zm-10,0h-6v-1h6Zm-10,0h-6v-1h6Zm-10,0h-6v-1h6Zm-10,0h-6v-1h6Zm-10,0h-6v-1h6Zm-10,0h-6v-1h6Zm-10,0h-6v-1h6Zm-10,0h-6v-1h6Zm-10,0h-6v-1h6Zm-10,0h-6v-1h6Zm-10,0h-6v-1h6Zm-10,0h-6v-1h6Zm-10,0h-6v-1h6Zm-10,0h-6v-1h6Zm-10,0h-6v-1h6Zm-10,0h-6v-1h6Zm-10,0h-6v-1h6Zm-10,0h-6v-1h6Zm-10,0h-6v-1h6Zm-10,0h-6v-1h6Zm-10,0h-6v-1h6Zm-10,0h-6v-1h6Zm-10,0h-6v-1h6Zm-10,0h-6v-1h6Zm-10,0h-6v-1h6Zm-10,0h-6v-1h6Zm-10,0h-6v-1h6Zm-10,0h-6v-1h6Zm-10,0h-6v-1h6Zm-10,0h-6v-1h6Zm-10,0h-6v-1h6Zm-10,0h-6v-1h6Zm-10,0h-6v-1h6Zm-10,0h-6v-1h6Zm-10,0h-6v-1h6Zm-10,0h-6v-1h6Zm-10,0h-6v-1h6Zm-10,0h-6v-1h6Zm-10,0h-6v-1h6Zm-10,0h-6v-1h6Zm-10,0h-6v-1h6Zm-10,0h-6v-1h6Zm-10,0h-6v-1h6Zm-10,0h-6v-1h6Zm-10,0h-6v-1h6Zm-10,0h-6v-1h6Zm-10,0h-6v-1h6Zm-10,0h-6v-1h6Zm-10,0h-6v-1h6Zm-10,0h-6v-1h6Zm-10,0h-6v-1h6Zm-10,0h-6v-1h6Zm-10,0h-6v-1h6Zm-10,0h-6v-1h6Zm-6.24-3.76h-1v-6h1Zm1226.74-2.67h-1v-6h1ZM55.67,752.75h-1v-6h1Zm1226.74-2.67h-1v-6h1ZM55.67,742.75h-1v-6h1Zm1226.74-2.67h-1v-6h1ZM55.67,732.75h-1v-6h1Zm1226.74-2.67h-1v-6h1ZM55.67,722.75h-1v-6h1Zm1226.74-2.67h-1v-6h1ZM55.67,712.75h-1v-6h1Zm1226.74-2.67h-1v-6h1ZM55.67,702.75h-1v-6h1Zm1226.74-2.67h-1v-6h1ZM55.67,692.75h-1v-6h1Zm1226.74-2.67h-1v-6h1ZM55.67,682.75h-1v-6h1Zm1226.74-2.67h-1v-6h1ZM55.67,672.75h-1v-6h1Zm1226.74-2.67h-1v-6h1ZM55.67,662.75h-1v-6h1Zm1226.74-2.67h-1v-6h1ZM55.67,652.75h-1v-6h1Zm1226.74-2.67h-1v-6h1ZM55.67,642.75h-1v-6h1Zm1226.74-2.67h-1v-6h1ZM55.67,632.75h-1v-6h1Zm1226.74-2.67h-1v-6h1ZM55.67,622.75h-1v-6h1Zm1226.74-2.67h-1v-6h1ZM55.67,612.75h-1v-6h1Zm1226.74-2.67h-1v-6h1ZM55.67,602.75h-1v-6h1Zm1226.74-2.67h-1v-6h1ZM55.67,592.75h-1v-6h1Zm1226.74-2.67h-1v-6h1ZM55.67,582.75h-1v-6h1Zm1226.74-2.67h-1v-6h1ZM55.67,572.75h-1v-6h1Zm1226.74-2.67h-1v-6h1ZM55.67,562.75h-1v-6h1Zm1226.74-2.67h-1v-6h1ZM55.67,552.75h-1v-6h1Zm1226.74-2.67h-1v-6h1ZM55.67,542.75h-1v-6h1Zm1226.74-2.67h-1v-6h1ZM55.67,532.75h-1v-6h1Zm1226.74-2.67h-1v-6h1ZM55.67,522.75h-1v-6h1Zm1226.74-2.67h-1v-6h1ZM55.67,512.75h-1v-6h1Zm1226.74-2.67h-1v-6h1ZM55.67,502.75h-1v-6h1Zm1226.74-2.67h-1v-6h1ZM55.67,492.75h-1v-6h1Zm1226.74-2.67h-1v-6h1ZM55.67,482.75h-1v-6h1Zm1226.74-2.67h-1v-6h1ZM55.67,472.75h-1v-6h1Zm1226.74-2.67h-1v-6h1ZM55.67,462.75h-1v-6h1Zm1226.74-2.67h-1v-6h1ZM55.67,452.75h-1v-6h1Zm1226.74-2.67h-1v-6h1ZM55.67,442.75h-1v-6h1Zm1226.74-2.67h-1v-6h1ZM55.67,432.75h-1v-6h1Zm1226.74-2.67h-1v-6h1ZM55.67,422.75h-1v-6h1Zm1226.74-2.67h-1v-6h1ZM55.67,412.75h-1v-6h1Zm1226.74-2.67h-1v-6h1ZM55.67,402.75h-1v-6h1Zm1226.74-2.67h-1v-6h1ZM55.67,392.75h-1v-6h1Zm1226.74-2.67h-1v-6h1ZM55.67,382.75h-1v-6h1Zm1226.74-2.67h-1v-6h1ZM55.67,372.75h-1v-6h1Zm1226.74-2.67h-1v-6h1ZM55.67,362.75h-1v-6h1Zm1226.74-2.67h-1v-6h1ZM55.67,352.75h-1v-6h1Zm1226.74-2.67h-1v-6h1ZM55.67,342.75h-1v-6h1Zm1226.74-2.67h-1v-6h1ZM55.67,332.75h-1v-6h1Zm1226.74-2.67h-1v-6h1ZM55.67,322.75h-1v-6h1Zm1226.74-2.67h-1v-6h1ZM55.67,312.75h-1v-6h1Zm1226.74-2.67h-1v-6h1ZM55.67,302.75h-1v-6h1Zm1226.74-2.67h-1v-6h1ZM55.67,292.75h-1v-6h1Zm1226.74-2.67h-1v-6h1ZM55.67,282.75h-1v-6h1Zm1226.74-2.67h-1v-6h1ZM55.67,272.75h-1v-6h1Zm1226.74-2.67h-1v-6h1ZM55.67,262.75h-1v-6h1Zm1226.74-2.67h-1v-6h1ZM55.67,252.75h-1v-6h1Zm1226.74-2.67h-1v-6h1ZM55.67,242.75h-1v-6h1Zm1226.74-2.67h-1v-6h1ZM55.67,232.75h-1v-6h1Zm1226.74-2.67h-1v-6h1ZM55.67,222.75h-1v-6h1Zm1226.74-2.67h-1v-6h1ZM55.67,212.75h-1v-6h1Zm1226.74-2.67h-1v-6h1ZM55.67,202.75h-1v-6h1Zm1226.74-2.67h-1v-6h1ZM55.67,192.75h-1v-6.46h.5l0,.5h.48Zm1226.74-2.67h-1v-2.79h-2.2v-1h3.2Zm-7.2-2.79h-6v-1h6Zm-10,0h-6v-1h6Zm-10,0h-6v-1h6Zm-10,0h-6v-1h6Zm-10,0h-6v-1h6Zm-10,0h-6v-1h6Zm-10,0h-6v-1h6Zm-10,0h-6v-1h6Zm-10,0h-6v-1h6Zm-10,0h-6v-1h6Zm-10,0h-6v-1h6Zm-10,0h-6v-1h6Zm-10,0h-6v-1h6Zm-10,0h-6v-1h6Zm-10,0h-6v-1h6Zm-10,0h-6v-1h6Zm-10,0h-6v-1h6Zm-10,0h-6v-1h6Zm-10,0h-6v-1h6Zm-10,0h-6v-1h6Zm-10,0h-6v-1h6Zm-10,0h-6v-1h6Zm-10,0h-6v-1h6Zm-10,0h-6v-1h6Zm-10,0h-6v-1h6Zm-10,0h-6v-1h6Zm-10,0h-6v-1h6Zm-10,0h-6v-1h6Zm-10,0h-6v-1h6Zm-10,0h-6v-1h6Zm-10,0h-6v-1h6Zm-10,0h-6v-1h6Zm-10,0h-6v-1h6Zm-10,0h-6v-1h6Zm-10,0h-6v-1h6Zm-10,0h-6v-1h6Zm-10,0h-6v-1h6Zm-10,0h-6v-1h6Zm-10,0h-6v-1h6Zm-10,0h-6v-1h6Zm-10,0h-6v-1h6Zm-10,0h-6v-1h6Zm-10,0h-6v-1h6Zm-10,0h-6v-1h6Zm-10,0h-6v-1h6Zm-10,0h-6v-1h6Zm-10,0h-6v-1h6Zm-10,0h-6v-1h6Zm-10,0h-6v-1h6Zm-10,0h-6v-1h6Zm-10,0h-6v-1h6Zm-10,0h-6v-1h6Zm-10,0h-6v-1h6Zm-10,0h-6v-1h6Zm-10,0h-6v-1h6Zm-10,0h-6v-1h6Zm-10,0h-6v-1h6Zm-10,0h-6v-1h6Zm-10,0h-6v-1h6Zm-10,0h-6v-1h6Zm-10,0h-6v-1h6Zm-10,0h-6v-1h6Zm-10,0h-6v-1h6Zm-10,0h-6v-1h6Zm-10,0h-6v-1h6Zm-10,0h-6v-1h6Zm-10,0h-6v-1h6Zm-10,0h-6v-1h6Zm-10,0h-6v-1h6Zm-10,0h-6v-1h6Zm-10,0h-6v-1h6Zm-10,0h-6v-1h6Zm-10,0h-6v-1h6Zm-10,0h-6v-1h6Zm-10,0h-6v-1h6Zm-10,0h-6v-1h6Zm-10,0h-6v-1h6Zm-10,0h-6v-1h6Zm-10,0h-6v-1h6Zm-10,0h-6v-1h6Zm-10,0h-6v-1h6Zm-10,0h-6v-1h6Zm-10,0h-6v-1h6Zm-10,0h-6v-1h6Zm-10,0h-6v-1h6Zm-10,0h-6v-1h6Zm-10,0h-6v-1h6Zm-10,0h-6v-1h6Zm-10,0h-6v-1h6Zm-10,0h-6v-1h6Zm-10,0h-6v-1h6Zm-10,0h-6v-1h6Zm-10,0h-6v-1h6Zm-10,0h-6v-1h6Zm-10,0h-6v-1h6Zm-10,0h-6v-1h6Zm-10,0h-6v-1h6Zm-10,0h-6v-1h6Zm-10,0h-6v-1h6Zm-10,0h-6v-1h6Zm-10,0h-6v-1h6Zm-10,0h-6v-1h6Zm-10,0h-6v-1h6Zm-10,0h-6v-1h6Zm-10,0h-6v-1h6Zm-10,0h-6v-1h6Zm-10,0h-6v-1h6Zm-10,0h-6v-1h6Zm-10,0h-6v-1h6Zm-10,0h-6v-1h6Zm-10,0h-6v-1h6Zm-10,0h-6v-1h6Zm-10,0h-6v-1h6Zm-10,0h-6v-1h6Zm-10,0h-6v-1h6Zm-10,0h-6v-1h6Zm-10,0h-6v-1h6Zm-10,0h-6v-1h6Zm-10,0h-6v-1h6Zm-10,0h-6v-1h6Zm-10,0h-6v-1h6Zm-10,0h-6v-1h6Z" transform="translate(-5.13 -23.72)"/><path d="M54.8,136h3.09l4.31,8.18h.14L66.65,136h2.94v16.08H67.11v-12.3H67l-1.27,2.6-3.52,6.43-3.53-6.43-1.26-2.6h-.12v12.3H54.8Z" transform="translate(-5.13 -23.72)"/><path d="M72.75,146.13c0-3.83,2.1-6.27,5.51-6.27s5.32,2.65,5.32,6v.94H75.35v.4a2.94,2.94,0,0,0,3.16,3.15,3.53,3.53,0,0,0,3.16-1.8L83.14,150a5.56,5.56,0,0,1-4.88,2.42C74.85,152.4,72.75,150,72.75,146.13Zm2.6-1.18v.16h5.58v-.23c0-1.84-1-3.06-2.67-3.06A2.89,2.89,0,0,0,75.35,145Z" transform="translate(-5.13 -23.72)"/><path d="M89.87,152.12a2.38,2.38,0,0,1-2.65-2.6v-7.33H85.35v-2.05h1c.83,0,1.11-.35,1.11-1.18v-2.09h2.26v3.27h2.51v2.05H89.73v7.88h2.33v2.05Z" transform="translate(-5.13 -23.72)"/><path d="M95.14,152.12v-12h2.51v2.3h.12a3.16,3.16,0,0,1,3.29-2.3h.67v2.42h-1c-2,0-3.09.67-3.09,1.91v7.65Z" transform="translate(-5.13 -23.72)"/><path d="M103.23,146.13c0-3.83,2.16-6.27,5.5-6.27s5.51,2.44,5.51,6.27-2.16,6.27-5.51,6.27S103.23,150,103.23,146.13Zm8.36,1v-2c0-2.11-1.15-3.17-2.86-3.17s-2.85,1.06-2.85,3.17v2c0,2.12,1.15,3.18,2.85,3.18S111.59,149.26,111.59,147.14Z" transform="translate(-5.13 -23.72)"/><path d="M16.19,38.33H16.1c-.32,1.54-1.89,2.72-4.33,2.72-3.83,0-6.64-2.93-6.64-8.32s2.81-8.32,7-8.32a6.25,6.25,0,0,1,6,3.62L16,29.27a4,4,0,0,0-3.87-2.53c-2.53,0-4.24,1.73-4.24,4.68V34c0,3,1.71,4.68,4.24,4.68,2,0,3.8-1,3.8-3V34.43H12.64V32.2h5.83v8.57H16.19Z" transform="translate(-5.13 -23.72)"/><path d="M21.28,34.78c0-3.82,2.1-6.27,5.51-6.27s5.32,2.65,5.32,6v.94H23.89v.4A2.93,2.93,0,0,0,27,39a3.52,3.52,0,0,0,3.16-1.79l1.47,1.45a5.56,5.56,0,0,1-4.88,2.42C23.38,41.05,21.28,38.6,21.28,34.78Zm2.61-1.18v.17h5.57v-.23c0-1.85-1-3.07-2.67-3.07A2.88,2.88,0,0,0,23.89,33.6Z" transform="translate(-5.13 -23.72)"/><path d="M34.28,34.78c0-3.82,2.16-6.27,5.5-6.27s5.51,2.45,5.51,6.27-2.17,6.27-5.51,6.27S34.28,38.6,34.28,34.78Zm8.36,1v-2c0-2.12-1.15-3.18-2.86-3.18s-2.85,1.06-2.85,3.18v2c0,2.12,1.15,3.18,2.85,3.18S42.64,37.91,42.64,35.79Z" transform="translate(-5.13 -23.72)"/><path d="M52.68,45.66c-3.91,0-5.43-1.06-5.43-2.89a2.24,2.24,0,0,1,2-2.3v-.25a1.83,1.83,0,0,1-1.36-1.85c0-1.24,1-1.84,2.12-2.12v-.09a3.73,3.73,0,0,1-2.19-3.55c0-2.44,1.73-4.1,4.77-4.1a5.82,5.82,0,0,1,2.16.37v-.32c0-1.06.51-1.71,1.57-1.71h1.84v2H55.77v.49a3.74,3.74,0,0,1,1.68,3.24c0,2.42-1.75,4.06-4.79,4.06a6.14,6.14,0,0,1-1.57-.19c-.6.21-1.15.6-1.15,1.2s.62.9,1.68.9h3c3,0,4.2,1.25,4.2,3.32C58.77,44.39,57,45.66,52.68,45.66Zm1.55-4.84H50.17a1.54,1.54,0,0,0-.83,1.38c0,1,.72,1.63,2.58,1.63h1.57c2,0,2.93-.55,2.93-1.65C56.42,41.35,55.86,40.82,54.23,40.82Zm.76-8v-.46c0-1.36-.86-2-2.33-2s-2.33.67-2.33,2v.46c0,1.36.86,2,2.33,2S55,34.18,55,32.82Z" transform="translate(-5.13 -23.72)"/><path d="M60.81,40.77v-12h2.52v2.3h.11a3.17,3.17,0,0,1,3.3-2.3h.66v2.42h-1c-2,0-3.08.67-3.08,1.91v7.65Z" transform="translate(-5.13 -23.72)"/><path d="M78.42,40.77a2.07,2.07,0,0,1-2.17-2h-.12a3.34,3.34,0,0,1-3.5,2.28c-2.46,0-3.87-1.41-3.87-3.57,0-2.38,1.78-3.6,5.12-3.6H76v-1c0-1.45-.78-2.31-2.46-2.31a3.18,3.18,0,0,0-2.86,1.64l-1.5-1.36a4.85,4.85,0,0,1,4.52-2.33c3.09,0,4.81,1.52,4.81,4.2v6h1.27v2.05ZM76,37.22V35.49H73.92c-1.75,0-2.6.58-2.6,1.62v.41c0,1.06.78,1.61,2,1.61C74.89,39.13,76,38.4,76,37.22Z" transform="translate(-5.13 -23.72)"/><path d="M82.47,28.79H85v2h.12a3.38,3.38,0,0,1,3.36-2.26c3,0,4.77,2.33,4.77,6.27s-1.75,6.27-4.77,6.27a3.42,3.42,0,0,1-3.36-2.26H85v6.59H82.47Zm8.11,7V33.74a2.81,2.81,0,0,0-2.88-3.06c-1.52,0-2.72.83-2.72,2v4.1c0,1.22,1.2,2.05,2.72,2.05A2.81,2.81,0,0,0,90.58,35.82Z" transform="translate(-5.13 -23.72)"/><path d="M96.29,23.72H98.8v7.05h.12a3.34,3.34,0,0,1,3.36-2.26c2.44,0,3.9,1.71,3.9,4.66v7.6h-2.51v-7.3c0-1.85-.72-2.79-2.26-2.79-1.32,0-2.61.67-2.61,2v8H96.29Z" transform="translate(-5.13 -23.72)"/><path d="M117,28.79h2.42l-5,14.35a2.81,2.81,0,0,1-3.16,2.24h-1.45V43.33h2l.69-2-4.36-12.51h2.51l2.4,7.05.69,2.6h.12l.76-2.6Z" transform="translate(-5.13 -23.72)"/><rect class="cls-5" x="101.57" y="272.69" width="651.22" height="412.33"/><g id="Lines"><rect class="cls-6" x="359.87" y="605.78" width="128.3" height="1"/><rect class="cls-6" x="536.59" y="377.65" width="1" height="255.83" transform="translate(-205.14 509.44) rotate(-45.41)"/><rect class="cls-6" x="197.83" y="503.98" width="255.24" height="1" transform="translate(-264.35 344.46) rotate(-44.05)"/><path class="cls-4" d="M609.6,596.44l-3.6-1.75.88-1.8,3.59,1.75Zm-7.2-3.5-3.59-1.75.87-1.79,3.6,1.74Zm-7.19-3.49-3.6-1.75.87-1.8,3.6,1.75ZM588,586l-3.6-1.74.88-1.8,3.6,1.74Zm-7.19-3.49-3.6-1.75.87-1.8,3.6,1.75Zm-7.2-3.5-3.6-1.74.88-1.8,3.59,1.74Zm-7.2-3.49-3.6-1.75.88-1.8,3.6,1.75Zm-7.19-3.5-3.6-1.74.87-1.8,3.6,1.74Zm-7.2-3.49-3.6-1.75.88-1.8,3.59,1.75Zm-7.2-3.5-3.59-1.74.87-1.8,3.6,1.75Zm-7.19-3.49-3.6-1.75.87-1.8,3.6,1.75Zm-7.2-3.5-3.6-1.74.88-1.8,3.6,1.75Zm-7.19-3.49-3.6-1.75.87-1.8,3.6,1.75Zm-7.2-3.5-3.6-1.74.87-1.8,3.6,1.75Zm-7.2-3.49-3.6-1.75.88-1.8,3.6,1.75ZM501.66,544l-3.6-1.75.87-1.8,3.6,1.75Zm-7.2-3.5-3.6-1.75.88-1.8,3.59,1.75Zm-7.2-3.49-3.59-1.75.87-1.8,3.6,1.75Zm-7.19-3.5-3.6-1.75.87-1.8,3.6,1.75Zm-7.2-3.49-3.6-1.75.88-1.8,3.6,1.75Zm-7.2-3.5-3.59-1.75L463,523l3.6,1.74Zm-7.19-3.49-3.6-1.75.87-1.8,3.6,1.75Zm-7.2-3.5-3.6-1.75.88-1.79,3.6,1.74Zm-7.19-3.49-3.6-1.75.87-1.8,3.6,1.75Zm-7.2-3.5-3.6-1.75.88-1.79,3.59,1.74Zm-7.2-3.49-3.59-1.75.87-1.8,3.6,1.75Zm-7.19-3.5-3.6-1.74.87-1.8,3.6,1.74Zm-7.2-3.49-3.6-1.75.88-1.8,3.59,1.75Zm-7.2-3.5-3.59-1.74.87-1.8,3.6,1.74Zm-7.19-3.49-3.6-1.75.87-1.8,3.6,1.75Zm-7.2-3.5-3.6-1.74.88-1.8,3.6,1.74Zm-7.19-3.49-3.6-1.75.87-1.8,3.6,1.75Zm-7.2-3.5-3.6-1.74.88-1.8,3.59,1.75Zm-7.2-3.49-3.6-1.75.88-1.8,3.6,1.75Zm-7.19-3.5-3.6-1.74.87-1.8,3.6,1.75Zm-7.2-3.49-3.6-1.75.88-1.8,3.59,1.75Zm-7.2-3.5-3.59-1.74.87-1.8,3.6,1.75Zm-7.19-3.49-3.6-1.75.87-1.8,3.6,1.75Zm-7.2-3.49-3.6-1.75.88-1.8,3.6,1.75Zm-7.19-3.5-3.6-1.75.87-1.8,3.6,1.75Zm-7.2-3.49-3.6-1.75.87-1.8,3.6,1.75Zm-7.2-3.5L311,451.4l.87-1.8,3.6,1.75Zm-7.19-3.49-3.6-1.75.87-1.8,3.6,1.75Zm-7.2-3.5-3.6-1.75.88-1.79,3.59,1.74Zm-7.2-3.49-3.59-1.75.87-1.8,3.6,1.75Zm-7.19-3.5-3.6-1.75.87-1.79,3.6,1.74Zm-7.2-3.49-3.6-1.75.88-1.8,3.6,1.75Zm-7.19-3.5-3.6-1.74.87-1.8,3.6,1.74Zm-7.2-3.49-3.6-1.75.88-1.8,3.59,1.75Zm-7.2-3.5-3.6-1.74.88-1.8,3.6,1.74Zm-7.19-3.49-3.6-1.75.87-1.8,3.6,1.75Zm-7.2-3.5-3.6-1.74.88-1.8,3.59,1.74Zm-7.2-3.49L231.8,413l.87-1.8,3.6,1.75Zm-7.19-3.5-3.6-1.74.87-1.8,3.6,1.75Zm-7.2-3.49L217.4,406l.88-1.8,3.6,1.75Zm-7.19-3.5-2.29-1.1.88-1.8,2.28,1.11Z" transform="translate(-5.13 -23.72)"/><path class="cls-4" d="M253.31,593.49l-.88-1.8L256,590l.88,1.79ZM260.5,590l-.87-1.8,3.6-1.75.87,1.8Zm7.2-3.5-.87-1.79,3.6-1.75.87,1.8Zm7.2-3.49-.87-1.8,3.59-1.74.88,1.8Zm7.2-3.49-.88-1.8,3.6-1.75.87,1.8Zm7.19-3.49-.87-1.8,3.6-1.75.87,1.8Zm7.2-3.5-.87-1.8,3.6-1.74.87,1.8Zm7.2-3.49-.88-1.8,3.6-1.75.88,1.8Zm7.19-3.49-.87-1.8,3.6-1.75.87,1.8Zm7.2-3.5-.87-1.8,3.6-1.74.87,1.8Zm7.2-3.49-.87-1.8L328,555l.88,1.8Zm7.2-3.49-.88-1.8,3.6-1.75.87,1.8Zm7.19-3.5-.87-1.8,3.6-1.74.87,1.8Zm7.2-3.49-.87-1.8,3.6-1.75.87,1.8Zm7.2-3.49-.88-1.8,3.6-1.75.88,1.8Zm7.19-3.5-.87-1.79,3.6-1.75.87,1.8Zm7.2-3.49-.87-1.8,3.6-1.74.87,1.79Zm7.2-3.49-.87-1.8,3.59-1.75.88,1.8Zm7.19-3.5-.87-1.79,3.6-1.75.87,1.8Zm7.2-3.49-.87-1.8,3.6-1.74.87,1.8Zm7.2-3.49-.87-1.8,3.6-1.75.87,1.8Zm7.2-3.49-.88-1.8,3.6-1.75.87,1.8Zm7.19-3.5-.87-1.8,3.6-1.74.87,1.8Zm7.2-3.49-.87-1.8,3.6-1.75.87,1.8Zm7.2-3.49-.88-1.8,3.6-1.75.88,1.8Zm7.19-3.5-.87-1.8,3.6-1.74.87,1.8Zm7.2-3.49-.87-1.8,3.6-1.75.87,1.8Zm7.2-3.49-.87-1.8,3.59-1.75.88,1.8Zm7.2-3.5-.88-1.8,3.6-1.74.87,1.8Zm7.19-3.49-.87-1.8,3.6-1.74.87,1.79Zm7.2-3.49-.87-1.8,3.6-1.75.87,1.8Zm7.2-3.5-.88-1.79,3.6-1.75.88,1.8Zm7.19-3.49-.87-1.8,3.6-1.74.87,1.79Zm7.2-3.49-.87-1.8,3.6-1.75.87,1.8Zm7.2-3.49-.87-1.8,3.59-1.75.88,1.8Zm7.2-3.5-.88-1.8,3.6-1.74.87,1.8Zm7.19-3.49-.87-1.8,3.6-1.75L516,466Zm7.2-3.49-.87-1.8,3.6-1.75.87,1.8Zm7.2-3.5-.88-1.8,3.6-1.74.88,1.8Zm7.19-3.49-.87-1.8,3.6-1.75.87,1.8Zm7.2-3.49-.87-1.8,3.6-1.75.87,1.8Zm7.2-3.5-.87-1.8,3.59-1.74.88,1.8Zm7.2-3.49-.88-1.8,3.6-1.75.87,1.8Zm7.19-3.49-.87-1.8,3.6-1.75.87,1.8Zm7.2-3.5-.87-1.8,3.6-1.74.87,1.8Zm7.2-3.49-.88-1.8,3.6-1.75.87,1.8Zm7.19-3.49-.87-1.8,3.6-1.75.87,1.8Zm7.2-3.5-.87-1.79,3.6-1.75.87,1.8Zm7.2-3.49-.88-1.8,3.6-1.74.88,1.79Zm7.19-3.49-.87-1.8,3.6-1.75.87,1.8Zm7.2-3.5-.87-1.79,3.6-1.75.87,1.8Zm7.2-3.49-.87-1.8,3.59-1.74.88,1.79Zm7.2-3.49-.88-1.8,3.6-1.75.87,1.8Zm7.19-3.5-.87-1.79,3.6-1.75.87,1.8Zm7.2-3.49-.87-1.8,3.6-1.74.87,1.8Z" transform="translate(-5.13 -23.72)"/><line class="cls-3" x1="214.32" y1="356.14" x2="306.87" y2="355.68"/><path class="cls-4" d="M219.45,380.86v-2l6,0v2Zm10-.05v-2l6,0v2Zm10-.05v-2l6,0v2Zm10-.05v-2l6,0v2Zm10,0v-2l6,0v2Zm10-.05v-2l6,0v2Zm10-.05v-2l6,0v2Zm10-.05v-2l6,0v2Zm10-.05v-2l6,0v2Zm10,0v-2H312v2Z" transform="translate(-5.13 -23.72)"/><line class="cls-3" x1="540.87" y1="358.32" x2="634.28" y2="358.32"/><path class="cls-4" d="M639.42,383H636v-2h3.42ZM632,383h-6v-2h6Zm-10,0h-6v-2h6Zm-10,0h-6v-2h6Zm-10,0h-6v-2h6Zm-10,0h-6v-2h6Zm-10,0h-6v-2h6Zm-10,0h-6v-2h6Zm-10,0h-6v-2h6Zm-10,0h-6v-2h6Z" transform="translate(-5.13 -23.72)"/><path class="cls-4" d="M218.36,592.88l-.8-3.92,1.95-.4.81,3.92Zm-1.61-7.83-.81-3.92,2-.41.8,3.92Zm-1.62-7.84-.81-3.92,2-.4.8,3.92Zm-1.62-7.83-.81-3.92,2-.4.81,3.91Zm-1.62-7.84-.81-3.91,2-.41.81,3.92Zm-1.62-7.83-.81-3.92,2-.4.81,3.91Zm-1.62-7.84-.81-3.91,2-.41.81,3.92ZM207,538l-.81-3.92,2-.4.81,3.91Zm-1.62-7.83-.81-3.92,2-.41.81,3.92Zm-1.62-7.84-.81-3.92,2-.4.81,3.92Zm-1.62-7.83-.81-3.92,2-.41.81,3.92Zm-1.62-7.84-.81-3.91,2-.41.81,3.92Zm-1.62-7.83-.81-3.92,2-.4.81,3.91ZM197.31,491l-.81-3.91,2-.41.81,3.92Zm-1.62-7.83-.81-3.92,2-.4.81,3.91Zm-1.62-7.83-.81-3.92,2-.41L196,475Zm-1.62-7.84-.81-3.92,2-.4.81,3.92Zm-1.62-7.83-.81-3.92,2-.41.81,3.92Zm-1.61-7.84-.81-3.92,2-.4.81,3.92ZM187.6,444l-.81-3.92,2-.4.8,3.91ZM186,436.19l-.81-3.91,2-.41.81,3.92Zm-1.62-7.83-.81-3.92,2-.4.81,3.91Zm-1.62-7.84-.81-3.91,2-.41.81,3.92Z" transform="translate(-5.13 -23.72)"/><path class="cls-4" d="M646.1,595.54l-2-.34.59-3.41,2,.35Zm1.28-7.34-2-.35.69-3.94,2,.35Zm1.37-7.88-2-.35.69-3.94,2,.35Zm1.38-7.88-2-.35.69-3.94,2,.35Zm1.37-7.88-2-.35.69-3.94,2,.34Zm1.38-7.89-2-.34.69-3.94,2,.34Zm1.37-7.88-2-.34.69-3.94,2,.34Zm1.38-7.88-2-.34.69-3.94,2,.34ZM657,533l-2-.34.69-3.94,2,.34Zm1.37-7.88-2-.34.69-3.94,2,.34Zm1.37-7.88-2-.34.68-3.94,2,.34Zm1.38-7.88-2-.35.69-3.94,2,.35Zm1.38-7.88-2-.35.68-3.94,2,.35Zm1.37-7.88-2-.35.69-3.94,2,.35Zm1.38-7.88-2-.35.68-3.94,2,.35Zm1.37-7.88-2-.35.69-3.94,2,.34ZM668,470l-2-.34.68-3.94,2,.34Zm1.37-7.88-2-.34.69-3.94,2,.34Zm1.38-7.88-2-.34.68-3.94,2,.34Zm1.37-7.88-2-.34.69-3.94,2,.34Zm1.38-7.88-2-.34.68-3.94,2,.34Zm1.37-7.88-2-.34.69-3.94,2,.34Zm1.38-7.88-2-.35.68-3.94,2,.35Z" transform="translate(-5.13 -23.72)"/></g><g id="content"><g class="cls-7"><rect class="cls-8" x="126.01" y="569.47" width="234" height="69.11"/></g><path class="cls-1" d="M162.55,624.83l-1.45-4.35h-6l-1.41,4.35H151l5.48-16.08h3.28l5.48,16.08Zm-4.4-13.68H158l-2.32,7.09h4.74Z" transform="translate(-5.13 -23.72)"/><path class="cls-1" d="M169.81,624.83l-4.08-12h2.49l1.82,5.46,1.22,4.19h.14l1.22-4.19,1.86-5.46h2.4l-4.12,12Z" transform="translate(-5.13 -23.72)"/><path class="cls-1" d="M187.75,624.83a2.07,2.07,0,0,1-2.16-2h-.12a3.33,3.33,0,0,1-3.5,2.28c-2.47,0-3.87-1.41-3.87-3.57,0-2.38,1.77-3.6,5.11-3.6h2.17v-1c0-1.45-.78-2.31-2.46-2.31a3.19,3.19,0,0,0-2.86,1.64l-1.5-1.36a4.84,4.84,0,0,1,4.52-2.33c3.08,0,4.81,1.53,4.81,4.2v6h1.27v2.05Zm-2.37-3.55v-1.72h-2.12c-1.75,0-2.6.57-2.6,1.61v.41c0,1.06.78,1.62,2,1.62C184.23,623.2,185.38,622.46,185.38,621.28Z" transform="translate(-5.13 -23.72)"/><path class="cls-1" d="M191.58,609.39V609c0-.76.46-1.31,1.49-1.31s1.48.55,1.48,1.31v.39c0,.77-.44,1.32-1.48,1.32S191.58,610.16,191.58,609.39Zm.23,3.46h2.51v12h-2.51Z" transform="translate(-5.13 -23.72)"/><path class="cls-1" d="M200.65,624.83a2.27,2.27,0,0,1-2.55-2.49V607.78h2.51v15h1.66v2.05Z" transform="translate(-5.13 -23.72)"/><path class="cls-1" d="M213.62,624.83a2.07,2.07,0,0,1-2.16-2h-.12a3.33,3.33,0,0,1-3.5,2.28c-2.46,0-3.87-1.41-3.87-3.57,0-2.38,1.77-3.6,5.11-3.6h2.17v-1c0-1.45-.78-2.31-2.46-2.31a3.19,3.19,0,0,0-2.86,1.64l-1.5-1.36a4.84,4.84,0,0,1,4.52-2.33c3.08,0,4.81,1.53,4.81,4.2v6H215v2.05Zm-2.37-3.55v-1.72h-2.12c-1.75,0-2.6.57-2.6,1.61v.41c0,1.06.78,1.62,2,1.62C210.1,623.2,211.25,622.46,211.25,621.28Z" transform="translate(-5.13 -23.72)"/><path class="cls-1" d="M217.68,607.78h2.51v7.05h.11a3.4,3.4,0,0,1,3.37-2.26c3,0,4.77,2.33,4.77,6.27s-1.75,6.27-4.77,6.27a3.43,3.43,0,0,1-3.37-2.26h-.11v2h-2.51Zm8.11,12.1V617.8a2.81,2.81,0,0,0-2.88-3.06c-1.52,0-2.72.83-2.72,2v4.1c0,1.22,1.2,2.05,2.72,2.05A2.81,2.81,0,0,0,225.79,619.88Z" transform="translate(-5.13 -23.72)"/><path class="cls-1" d="M231.27,609.39V609c0-.76.46-1.31,1.5-1.31s1.47.55,1.47,1.31v.39c0,.77-.44,1.32-1.47,1.32S231.27,610.16,231.27,609.39Zm.23,3.46H234v12H231.5Z" transform="translate(-5.13 -23.72)"/><path class="cls-1" d="M240.35,624.83a2.28,2.28,0,0,1-2.56-2.49V607.78h2.51v15H242v2.05Z" transform="translate(-5.13 -23.72)"/><path class="cls-1" d="M244.31,609.39V609c0-.76.46-1.31,1.5-1.31s1.47.55,1.47,1.31v.39c0,.77-.44,1.32-1.47,1.32S244.31,610.16,244.31,609.39Zm.23,3.46h2.51v12h-2.51Z" transform="translate(-5.13 -23.72)"/><path class="cls-1" d="M254.15,624.83a2.38,2.38,0,0,1-2.65-2.6V614.9h-1.87v-2h1c.83,0,1.11-.34,1.11-1.17v-2.1H254v3.27h2.51v2H254v7.88h2.32v2.05Z" transform="translate(-5.13 -23.72)"/><path class="cls-1" d="M266.77,612.85h2.42l-5.05,14.36a2.8,2.8,0,0,1-3.15,2.23h-1.45v-2.05h2l.7-2-4.36-12.51h2.51l2.4,7,.69,2.6h.11l.77-2.6Z" transform="translate(-5.13 -23.72)"/><path class="cls-1" d="M276.1,624.83v-2l6.43-7.9h-6.22v-2h9.19v1.94l-6.52,8h6.68v2.05Z" transform="translate(-5.13 -23.72)"/><path class="cls-1" d="M287.41,618.84c0-3.82,2.17-6.27,5.51-6.27s5.51,2.45,5.51,6.27-2.17,6.27-5.51,6.27S287.41,622.67,287.41,618.84Zm8.37,1v-2c0-2.12-1.16-3.18-2.86-3.18s-2.86,1.06-2.86,3.18v2c0,2.12,1.15,3.17,2.86,3.17S295.78,622,295.78,619.86Z" transform="translate(-5.13 -23.72)"/><path class="cls-1" d="M301.4,624.83v-12h2.51v2H304a3.35,3.35,0,0,1,3.37-2.26c2.44,0,3.89,1.71,3.89,4.66v7.6h-2.51v-7.28c0-1.86-.72-2.81-2.26-2.81-1.31,0-2.6.67-2.6,2.07v8Z" transform="translate(-5.13 -23.72)"/><path class="cls-1" d="M314.13,618.84c0-3.82,2.1-6.27,5.51-6.27s5.32,2.65,5.32,6v1h-8.22v.39A2.94,2.94,0,0,0,319.9,623a3.51,3.51,0,0,0,3.15-1.79l1.48,1.45a5.57,5.57,0,0,1-4.89,2.42C316.23,625.11,314.13,622.67,314.13,618.84Zm2.61-1.17v.16h5.57v-.23c0-1.85-1-3.07-2.67-3.07A2.88,2.88,0,0,0,316.74,617.67Z" transform="translate(-5.13 -23.72)"/><path class="cls-1" d="M344.22,624.83H333.3v-2.49l5.14-4.58c1.61-1.45,2.53-2.74,2.53-4.22v-.3a2.38,2.38,0,0,0-2.6-2.51,3,3,0,0,0-3,2.54l-2.28-.88a5.41,5.41,0,0,1,5.51-3.92c3.27,0,5.16,2,5.16,4.77,0,2.61-1.73,4.31-3.85,6.13l-3.78,3.25h8.11Z" transform="translate(-5.13 -23.72)"/><path class="cls-1" d="M201.76,634.22h1.69a9.31,9.31,0,0,0-2.91,6.69v1.31a9.35,9.35,0,0,0,2.91,6.69h-1.69a10.72,10.72,0,0,1,0-14.69Z" transform="translate(-5.13 -23.72)"/><path class="cls-1" d="M210.27,645.24h-.08a2.42,2.42,0,0,1-2.39,1.6c-2.14,0-3.39-1.65-3.39-4.44s1.25-4.45,3.39-4.45a2.41,2.41,0,0,1,2.39,1.6h.08v-5h1.78v12.11h-1.78Zm0-1.39v-2.91c0-.87-.85-1.46-1.93-1.46a2,2,0,0,0-2.05,2.18v1.47a2,2,0,0,0,2.05,2.18C209.42,645.31,210.27,644.72,210.27,643.85Z" transform="translate(-5.13 -23.72)"/><path class="cls-1" d="M221.17,646.65a1.47,1.47,0,0,1-1.54-1.42h-.08a2.37,2.37,0,0,1-2.49,1.61,2.44,2.44,0,0,1-2.75-2.53c0-1.69,1.26-2.55,3.63-2.55h1.54V641c0-1-.55-1.64-1.75-1.64a2.26,2.26,0,0,0-2,1.16l-1.06-1a3.44,3.44,0,0,1,3.21-1.65c2.19,0,3.41,1.08,3.41,3v4.27h.9v1.46Zm-1.69-2.52V642.9H218c-1.25,0-1.85.41-1.85,1.15v.29c0,.75.55,1.15,1.44,1.15C218.66,645.49,219.48,645,219.48,644.13Z" transform="translate(-5.13 -23.72)"/><path class="cls-1" d="M226.55,646.65a1.69,1.69,0,0,1-1.88-1.85v-5.2h-1.32v-1.46h.71c.59,0,.79-.24.79-.83v-1.49h1.6v2.32h1.79v1.46h-1.79v5.59h1.66v1.46Z" transform="translate(-5.13 -23.72)"/><path class="cls-1" d="M236.73,646.65a1.47,1.47,0,0,1-1.54-1.42h-.08a2.37,2.37,0,0,1-2.49,1.61,2.44,2.44,0,0,1-2.75-2.53c0-1.69,1.26-2.55,3.63-2.55H235V641c0-1-.55-1.64-1.75-1.64a2.26,2.26,0,0,0-2,1.16l-1.06-1a3.44,3.44,0,0,1,3.21-1.65c2.19,0,3.42,1.08,3.42,3v4.27h.9v1.46ZM235,644.13V642.9h-1.5c-1.25,0-1.85.41-1.85,1.15v.29c0,.75.56,1.15,1.44,1.15C234.22,645.49,235,645,235,644.13Z" transform="translate(-5.13 -23.72)"/><path class="cls-1" d="M243.42,642.4c0-2.72,1.41-4.45,3.86-4.45a3.29,3.29,0,0,1,3.29,2.09l-1.47.69a1.77,1.77,0,0,0-1.82-1.3c-1.31,0-2,.9-2,2.21v1.52c0,1.31.67,2.21,2,2.21a2,2,0,0,0,2-1.4l1.35.72a3.33,3.33,0,0,1-3.35,2.15C244.83,646.84,243.42,645.11,243.42,642.4Z" transform="translate(-5.13 -23.72)"/><path class="cls-1" d="M252,642.4c0-2.72,1.48-4.45,3.9-4.45s3.78,1.88,3.78,4.23v.67h-5.84v.28a2.08,2.08,0,0,0,2.24,2.24,2.52,2.52,0,0,0,2.25-1.27l1,1a3.94,3.94,0,0,1-3.47,1.71C253.48,646.84,252,645.11,252,642.4Zm1.84-.84v.12h4v-.17a1.91,1.91,0,0,0-1.9-2.17A2,2,0,0,0,253.84,641.56Z" transform="translate(-5.13 -23.72)"/><path class="cls-1" d="M262,646.65v-8.51h1.79v1.41h.08a2.37,2.37,0,0,1,2.39-1.6c1.73,0,2.76,1.21,2.76,3.3v5.4h-1.78v-5.17c0-1.33-.51-2-1.61-2-.93,0-1.84.48-1.84,1.48v5.69Z" transform="translate(-5.13 -23.72)"/><path class="cls-1" d="M274.17,646.65a1.7,1.7,0,0,1-1.89-1.85v-5.2H271v-1.46h.72c.59,0,.78-.24.78-.83v-1.49h1.61v2.32h1.78v1.46h-1.78v5.59h1.65v1.46Z" transform="translate(-5.13 -23.72)"/><path class="cls-1" d="M277.47,642.4c0-2.72,1.49-4.45,3.91-4.45s3.78,1.88,3.78,4.23v.67h-5.84v.28a2.08,2.08,0,0,0,2.24,2.24,2.49,2.49,0,0,0,2.24-1.27l1.05,1a3.94,3.94,0,0,1-3.47,1.71C279,646.84,277.47,645.11,277.47,642.4Zm1.85-.84v.12h4v-.17a1.91,1.91,0,0,0-1.9-2.17A2,2,0,0,0,279.32,641.56Z" transform="translate(-5.13 -23.72)"/><path class="cls-1" d="M287.47,646.65v-8.51h1.78v1.64h.08a2.25,2.25,0,0,1,2.34-1.64h.48v1.72h-.71c-1.4,0-2.19.47-2.19,1.36v5.43Z" transform="translate(-5.13 -23.72)"/><path class="cls-1" d="M294.34,648.91h-1.68a9.39,9.39,0,0,0,2.91-6.69v-1.31a9.35,9.35,0,0,0-2.91-6.69h1.68a10.72,10.72,0,0,1,0,14.69Z" transform="translate(-5.13 -23.72)"/><g class="cls-7"><rect class="cls-8" x="488.16" y="571.65" width="234" height="69.11"/></g><path class="cls-1" d="M524.7,627l-1.45-4.35h-6L515.83,627h-2.65l5.49-16.08h3.27L527.42,627Zm-4.4-13.68h-.11l-2.33,7.09h4.75Z" transform="translate(-5.13 -23.72)"/><path class="cls-1" d="M532,627l-4.08-12h2.49l1.82,5.46,1.22,4.2h.14l1.22-4.2,1.87-5.46H539l-4.12,12Z" transform="translate(-5.13 -23.72)"/><path class="cls-1" d="M549.91,627a2.07,2.07,0,0,1-2.17-2h-.11a3.33,3.33,0,0,1-3.51,2.28c-2.46,0-3.87-1.41-3.87-3.57,0-2.37,1.78-3.6,5.12-3.6h2.16v-1c0-1.45-.78-2.3-2.46-2.3a3.19,3.19,0,0,0-2.86,1.63l-1.5-1.36a4.87,4.87,0,0,1,4.52-2.32c3.09,0,4.82,1.52,4.82,4.19v6h1.26v2Zm-2.38-3.54v-1.73h-2.12c-1.75,0-2.6.57-2.6,1.61v.42c0,1.05.78,1.61,2,1.61C546.38,625.38,547.53,624.64,547.53,623.47Z" transform="translate(-5.13 -23.72)"/><path class="cls-1" d="M553.73,611.58v-.4c0-.76.46-1.31,1.5-1.31s1.47.55,1.47,1.31v.4c0,.76-.44,1.31-1.47,1.31S553.73,612.34,553.73,611.58ZM554,615h2.51v12H554Z" transform="translate(-5.13 -23.72)"/><path class="cls-1" d="M562.81,627a2.27,2.27,0,0,1-2.56-2.48V610h2.51v15h1.66v2Z" transform="translate(-5.13 -23.72)"/><path class="cls-1" d="M575.78,627a2.07,2.07,0,0,1-2.17-2h-.11a3.33,3.33,0,0,1-3.51,2.28c-2.46,0-3.87-1.41-3.87-3.57,0-2.37,1.78-3.6,5.12-3.6h2.16v-1c0-1.45-.78-2.3-2.46-2.3a3.19,3.19,0,0,0-2.86,1.63l-1.5-1.36a4.87,4.87,0,0,1,4.52-2.32c3.09,0,4.82,1.52,4.82,4.19v6h1.26v2Zm-2.38-3.54v-1.73h-2.11c-1.76,0-2.61.57-2.61,1.61v.42c0,1.05.78,1.61,2,1.61C572.25,625.38,573.4,624.64,573.4,623.47Z" transform="translate(-5.13 -23.72)"/><path class="cls-1" d="M579.83,610h2.51v7h.12a3.39,3.39,0,0,1,3.36-2.25c3,0,4.77,2.32,4.77,6.26s-1.75,6.27-4.77,6.27a3.41,3.41,0,0,1-3.36-2.26h-.12v2h-2.51Zm8.11,12.1V620a2.81,2.81,0,0,0-2.88-3.07c-1.52,0-2.72.83-2.72,2.05v4.1c0,1.22,1.2,2,2.72,2A2.81,2.81,0,0,0,587.94,622.06Z" transform="translate(-5.13 -23.72)"/><path class="cls-1" d="M593.42,611.58v-.4c0-.76.46-1.31,1.5-1.31s1.48.55,1.48,1.31v.4c0,.76-.44,1.31-1.48,1.31S593.42,612.34,593.42,611.58Zm.23,3.45h2.52v12h-2.52Z" transform="translate(-5.13 -23.72)"/><path class="cls-1" d="M602.5,627a2.28,2.28,0,0,1-2.56-2.48V610h2.51v15h1.66v2Z" transform="translate(-5.13 -23.72)"/><path class="cls-1" d="M606.46,611.58v-.4c0-.76.46-1.31,1.5-1.31s1.47.55,1.47,1.31v.4c0,.76-.43,1.31-1.47,1.31S606.46,612.34,606.46,611.58Zm.23,3.45h2.51v12h-2.51Z" transform="translate(-5.13 -23.72)"/><path class="cls-1" d="M616.3,627a2.37,2.37,0,0,1-2.65-2.6v-7.33h-1.87V615h1c.83,0,1.1-.34,1.1-1.17v-2.1h2.26V615h2.51v2.05h-2.51V625h2.33v2Z" transform="translate(-5.13 -23.72)"/><path class="cls-1" d="M628.92,615h2.42l-5,14.36a2.81,2.81,0,0,1-3.16,2.23h-1.45v-2h2l.69-2L620.05,615h2.52l2.39,7.05.69,2.61h.12l.76-2.61Z" transform="translate(-5.13 -23.72)"/><path class="cls-1" d="M638.25,627v-2l6.43-7.91h-6.22V615h9.19V617l-6.52,8h6.69v2Z" transform="translate(-5.13 -23.72)"/><path class="cls-1" d="M649.56,621c0-3.82,2.17-6.26,5.51-6.26s5.51,2.44,5.51,6.26-2.17,6.27-5.51,6.27S649.56,624.85,649.56,621Zm8.37,1v-2c0-2.12-1.15-3.18-2.86-3.18s-2.86,1.06-2.86,3.18v2c0,2.12,1.16,3.18,2.86,3.18S657.93,624.16,657.93,622Z" transform="translate(-5.13 -23.72)"/><path class="cls-1" d="M663.55,627V615h2.51v2h.12a3.33,3.33,0,0,1,3.36-2.25c2.44,0,3.89,1.7,3.89,4.65V627h-2.51v-7.28c0-1.86-.71-2.81-2.26-2.81-1.31,0-2.6.67-2.6,2.08v8Z" transform="translate(-5.13 -23.72)"/><path class="cls-1" d="M676.29,621c0-3.82,2.09-6.26,5.5-6.26s5.33,2.65,5.33,6v.95h-8.23v.39a2.94,2.94,0,0,0,3.16,3.16,3.53,3.53,0,0,0,3.16-1.8l1.47,1.45a5.57,5.57,0,0,1-4.89,2.42C678.38,627.29,676.29,624.85,676.29,621Zm2.6-1.17V620h5.58v-.23c0-1.84-1-3.07-2.68-3.07A2.89,2.89,0,0,0,678.89,619.85Z" transform="translate(-5.13 -23.72)"/><path class="cls-1" d="M700,617.54c2,0,2.92-.94,2.92-2.25v-.17a2.24,2.24,0,0,0-2.55-2.28,3.69,3.69,0,0,0-3.32,2l-1.73-1.5a5.78,5.78,0,0,1,5.12-2.65c3,0,5.23,1.55,5.23,4.15a3.7,3.7,0,0,1-3.09,3.69v.11a3.89,3.89,0,0,1,3.36,4c0,2.81-2.3,4.7-5.73,4.7a6.12,6.12,0,0,1-5.51-2.88l1.91-1.5a3.85,3.85,0,0,0,3.6,2.19c2,0,3-1,3-2.65v-.16c0-1.64-1.16-2.53-3.18-2.53h-1.71v-2.22Z" transform="translate(-5.13 -23.72)"/><path class="cls-1" d="M563.92,636.4h1.68a9.35,9.35,0,0,0-2.91,6.69v1.31a9.39,9.39,0,0,0,2.91,6.69h-1.68a10.7,10.7,0,0,1,0-14.69Z" transform="translate(-5.13 -23.72)"/><path class="cls-1" d="M572.42,647.42h-.08A2.43,2.43,0,0,1,570,649c-2.14,0-3.38-1.66-3.38-4.45s1.24-4.45,3.38-4.45a2.41,2.41,0,0,1,2.39,1.6h.08v-5h1.79v12.1h-1.79Zm0-1.39v-2.91c0-.87-.85-1.45-1.93-1.45a2,2,0,0,0-2,2.17v1.47a2,2,0,0,0,2,2.18C571.57,647.49,572.42,646.9,572.42,646Z" transform="translate(-5.13 -23.72)"/><path class="cls-1" d="M583.32,648.83a1.48,1.48,0,0,1-1.54-1.42h-.08a2.37,2.37,0,0,1-2.49,1.62,2.44,2.44,0,0,1-2.74-2.54c0-1.68,1.26-2.55,3.63-2.55h1.54v-.72c0-1-.56-1.64-1.76-1.64a2.24,2.24,0,0,0-2,1.17l-1.07-1a3.45,3.45,0,0,1,3.21-1.65c2.19,0,3.42,1.08,3.42,3v4.27h.9v1.46Zm-1.68-2.52v-1.23h-1.51c-1.24,0-1.85.41-1.85,1.15v.29c0,.76.56,1.15,1.44,1.15C580.82,647.67,581.64,647.15,581.64,646.31Z" transform="translate(-5.13 -23.72)"/><path class="cls-1" d="M588.71,648.83a1.7,1.7,0,0,1-1.89-1.85v-5.2H585.5v-1.46h.72c.59,0,.78-.24.78-.83V638h1.61v2.32h1.78v1.46h-1.78v5.59h1.65v1.46Z" transform="translate(-5.13 -23.72)"/><path class="cls-1" d="M598.88,648.83a1.48,1.48,0,0,1-1.54-1.42h-.08a2.37,2.37,0,0,1-2.48,1.62,2.45,2.45,0,0,1-2.75-2.54c0-1.68,1.26-2.55,3.63-2.55h1.54v-.72c0-1-.56-1.64-1.75-1.64a2.24,2.24,0,0,0-2,1.17l-1.07-1a3.45,3.45,0,0,1,3.21-1.65c2.19,0,3.42,1.08,3.42,3v4.27h.9v1.46Zm-1.68-2.52v-1.23h-1.51c-1.24,0-1.85.41-1.85,1.15v.29c0,.76.56,1.15,1.44,1.15C596.38,647.67,597.2,647.15,597.2,646.31Z" transform="translate(-5.13 -23.72)"/><path class="cls-1" d="M605.58,644.58c0-2.72,1.4-4.45,3.86-4.45a3.26,3.26,0,0,1,3.28,2.09l-1.47.69a1.75,1.75,0,0,0-1.81-1.29,1.93,1.93,0,0,0-2,2.2v1.53a1.93,1.93,0,0,0,2,2.2,2,2,0,0,0,2-1.4l1.36.72a3.36,3.36,0,0,1-3.35,2.16C607,649,605.58,647.29,605.58,644.58Z" transform="translate(-5.13 -23.72)"/><path class="cls-1" d="M614.15,644.58c0-2.72,1.49-4.45,3.91-4.45s3.78,1.88,3.78,4.23V645H616v.27a2.08,2.08,0,0,0,2.24,2.24,2.49,2.49,0,0,0,2.24-1.27l1,1a4,4,0,0,1-3.47,1.72C615.64,649,614.15,647.29,614.15,644.58Zm1.85-.84v.12h4v-.17a1.91,1.91,0,0,0-1.9-2.17A2,2,0,0,0,616,643.74Z" transform="translate(-5.13 -23.72)"/><path class="cls-1" d="M624.15,648.83v-8.51h1.78v1.41H626a2.37,2.37,0,0,1,2.39-1.6c1.73,0,2.76,1.21,2.76,3.3v5.4h-1.78v-5.17c0-1.32-.51-2-1.6-2-.93,0-1.85.47-1.85,1.47v5.69Z" transform="translate(-5.13 -23.72)"/><path class="cls-1" d="M636.32,648.83a1.69,1.69,0,0,1-1.88-1.85v-5.2h-1.33v-1.46h.72c.59,0,.79-.24.79-.83V638h1.6v2.32H638v1.46h-1.78v5.59h1.65v1.46Z" transform="translate(-5.13 -23.72)"/><path class="cls-1" d="M639.62,644.58c0-2.72,1.49-4.45,3.91-4.45s3.78,1.88,3.78,4.23V645h-5.84v.27a2.08,2.08,0,0,0,2.24,2.24,2.52,2.52,0,0,0,2.25-1.27l1,1a4,4,0,0,1-3.47,1.72C641.11,649,639.62,647.29,639.62,644.58Zm1.85-.84v.12h4v-.17a1.91,1.91,0,0,0-1.9-2.17A2,2,0,0,0,641.47,643.74Z" transform="translate(-5.13 -23.72)"/><path class="cls-1" d="M649.62,648.83v-8.51h1.79V642h.08a2.24,2.24,0,0,1,2.34-1.64h.47V642h-.7c-1.41,0-2.19.48-2.19,1.36v5.43Z" transform="translate(-5.13 -23.72)"/><path class="cls-1" d="M656.49,651.09h-1.68a9.39,9.39,0,0,0,2.91-6.69v-1.31a9.35,9.35,0,0,0-2.91-6.69h1.68a10.7,10.7,0,0,1,0,14.69Z" transform="translate(-5.13 -23.72)"/><g class="cls-7"><rect class="cls-8" x="307.09" y="322.94" width="234" height="69.11"/></g><path class="cls-1" d="M346.75,378.31,345.3,374h-6l-1.4,4.36h-2.65l5.48-16.09H344l5.49,16.09Zm-4.4-13.69h-.12l-2.33,7.1h4.75Z" transform="translate(-5.13 -23.72)"/><path class="cls-1" d="M354,378.31l-4.08-12h2.49l1.82,5.47,1.22,4.19h.14l1.22-4.19,1.87-5.47h2.4l-4.13,12Z" transform="translate(-5.13 -23.72)"/><path class="cls-1" d="M372,378.31a2.09,2.09,0,0,1-2.17-2h-.11a3.33,3.33,0,0,1-3.5,2.28c-2.47,0-3.87-1.4-3.87-3.57,0-2.37,1.77-3.59,5.11-3.59h2.17v-1c0-1.45-.79-2.3-2.47-2.3a3.2,3.2,0,0,0-2.86,1.63l-1.49-1.35a4.84,4.84,0,0,1,4.51-2.33c3.09,0,4.82,1.52,4.82,4.19v6h1.27v2.06Zm-2.37-3.55V373h-2.12c-1.75,0-2.61.58-2.61,1.61v.42c0,1.06.79,1.61,2,1.61C368.42,376.67,369.58,375.93,369.58,374.76Z" transform="translate(-5.13 -23.72)"/><path class="cls-1" d="M375.77,362.87v-.39c0-.76.46-1.32,1.5-1.32s1.47.56,1.47,1.32v.39c0,.76-.43,1.31-1.47,1.31S375.77,363.63,375.77,362.87Zm.23,3.45h2.51v12H376Z" transform="translate(-5.13 -23.72)"/><path class="cls-1" d="M384.85,378.31a2.29,2.29,0,0,1-2.56-2.49V361.26h2.51v15h1.66v2.06Z" transform="translate(-5.13 -23.72)"/><path class="cls-1" d="M397.82,378.31a2.09,2.09,0,0,1-2.17-2h-.11a3.33,3.33,0,0,1-3.5,2.28c-2.47,0-3.87-1.4-3.87-3.57,0-2.37,1.77-3.59,5.11-3.59h2.17v-1c0-1.45-.79-2.3-2.47-2.3a3.2,3.2,0,0,0-2.86,1.63l-1.49-1.35a4.84,4.84,0,0,1,4.51-2.33c3.09,0,4.82,1.52,4.82,4.19v6h1.27v2.06Zm-2.37-3.55V373h-2.12c-1.75,0-2.61.58-2.61,1.61v.42c0,1.06.79,1.61,2,1.61C394.29,376.67,395.45,375.93,395.45,374.76Z" transform="translate(-5.13 -23.72)"/><path class="cls-1" d="M401.87,361.26h2.52v7.05h.11a3.39,3.39,0,0,1,3.36-2.26c3,0,4.77,2.33,4.77,6.26s-1.75,6.27-4.77,6.27a3.41,3.41,0,0,1-3.36-2.26h-.11v2h-2.52ZM410,373.35v-2.07a2.81,2.81,0,0,0-2.88-3.07c-1.52,0-2.71.83-2.71,2.05v4.11c0,1.22,1.19,2.05,2.71,2.05A2.81,2.81,0,0,0,410,373.35Z" transform="translate(-5.13 -23.72)"/><path class="cls-1" d="M415.47,362.87v-.39c0-.76.46-1.32,1.49-1.32s1.48.56,1.48,1.32v.39c0,.76-.44,1.31-1.48,1.31S415.47,363.63,415.47,362.87Zm.23,3.45h2.51v12H415.7Z" transform="translate(-5.13 -23.72)"/><path class="cls-1" d="M424.54,378.31a2.28,2.28,0,0,1-2.55-2.49V361.26h2.51v15h1.66v2.06Z" transform="translate(-5.13 -23.72)"/><path class="cls-1" d="M428.5,362.87v-.39c0-.76.47-1.32,1.5-1.32s1.48.56,1.48,1.32v.39c0,.76-.44,1.31-1.48,1.31S428.5,363.63,428.5,362.87Zm.24,3.45h2.51v12h-2.51Z" transform="translate(-5.13 -23.72)"/><path class="cls-1" d="M438.34,378.31a2.38,2.38,0,0,1-2.65-2.61v-7.32h-1.86v-2.06h1c.83,0,1.11-.34,1.11-1.17v-2.1h2.25v3.27h2.52v2.06H438.2v7.87h2.33v2.06Z" transform="translate(-5.13 -23.72)"/><path class="cls-1" d="M451,366.32h2.42l-5.05,14.36a2.81,2.81,0,0,1-3.16,2.23h-1.45v-2.05h2l.69-2-4.35-12.52h2.51l2.39,7.06.7,2.6h.11l.76-2.6Z" transform="translate(-5.13 -23.72)"/><path class="cls-1" d="M460.3,378.31v-2l6.42-7.9H460.5v-2.06h9.2v1.94l-6.52,8h6.68v2.06Z" transform="translate(-5.13 -23.72)"/><path class="cls-1" d="M471.61,372.31c0-3.82,2.16-6.26,5.5-6.26s5.51,2.44,5.51,6.26-2.16,6.27-5.51,6.27S471.61,376.14,471.61,372.31Zm8.36,1v-2c0-2.12-1.15-3.18-2.86-3.18s-2.85,1.06-2.85,3.18v2c0,2.12,1.15,3.18,2.85,3.18S480,375.45,480,373.33Z" transform="translate(-5.13 -23.72)"/><path class="cls-1" d="M485.59,378.31v-12h2.51v2h.12a3.34,3.34,0,0,1,3.36-2.26c2.44,0,3.9,1.7,3.9,4.65v7.61H493V371c0-1.86-.72-2.81-2.26-2.81-1.32,0-2.61.67-2.61,2.08v8Z" transform="translate(-5.13 -23.72)"/><path class="cls-1" d="M498.33,372.31c0-3.82,2.1-6.26,5.51-6.26s5.32,2.65,5.32,6V373h-8.23v.39a2.94,2.94,0,0,0,3.16,3.16,3.5,3.5,0,0,0,3.16-1.8l1.47,1.45a5.56,5.56,0,0,1-4.88,2.42C500.43,378.58,498.33,376.14,498.33,372.31Zm2.6-1.17v.16h5.58v-.23c0-1.84-1-3.06-2.67-3.06A2.89,2.89,0,0,0,500.93,371.14Z" transform="translate(-5.13 -23.72)"/><path class="cls-1" d="M518,378.31v-2.17h4.52v-12h-.19l-3.73,4L517,366.67l4.1-4.45h4v13.92H529v2.17Z" transform="translate(-5.13 -23.72)"/><path class="cls-1" d="M386,387.69h1.68a9.37,9.37,0,0,0-2.91,6.69v1.31a9.37,9.37,0,0,0,2.91,6.69H386a10.72,10.72,0,0,1,0-14.69Z" transform="translate(-5.13 -23.72)"/><path class="cls-1" d="M394.47,398.72h-.09a2.43,2.43,0,0,1-2.38,1.6c-2.15,0-3.39-1.65-3.39-4.45s1.24-4.45,3.39-4.45a2.41,2.41,0,0,1,2.38,1.6h.09v-5h1.78v12.1h-1.78Zm0-1.39v-2.92c0-.86-.85-1.45-1.93-1.45a2,2,0,0,0-2.05,2.17v1.48a2,2,0,0,0,2.05,2.17C393.62,398.78,394.47,398.19,394.47,397.33Z" transform="translate(-5.13 -23.72)"/><path class="cls-1" d="M405.36,400.12a1.46,1.46,0,0,1-1.53-1.42h-.09a2.36,2.36,0,0,1-2.48,1.62,2.45,2.45,0,0,1-2.75-2.54c0-1.68,1.26-2.55,3.63-2.55h1.54v-.72c0-1-.56-1.63-1.75-1.63a2.25,2.25,0,0,0-2,1.16l-1.06-1a3.42,3.42,0,0,1,3.2-1.65c2.19,0,3.42,1.08,3.42,3v4.27h.9v1.45Zm-1.68-2.52v-1.22h-1.51c-1.24,0-1.85.41-1.85,1.14v.3c0,.75.56,1.14,1.44,1.14C402.86,399,403.68,398.44,403.68,397.6Z" transform="translate(-5.13 -23.72)"/><path class="cls-1" d="M410.75,400.12a1.68,1.68,0,0,1-1.88-1.85v-5.2h-1.33v-1.45h.72c.59,0,.79-.25.79-.84v-1.49h1.6v2.33h1.78v1.45h-1.78v5.6h1.65v1.45Z" transform="translate(-5.13 -23.72)"/><path class="cls-1" d="M420.92,400.12a1.46,1.46,0,0,1-1.53-1.42h-.09a2.36,2.36,0,0,1-2.48,1.62,2.45,2.45,0,0,1-2.75-2.54c0-1.68,1.26-2.55,3.63-2.55h1.54v-.72c0-1-.56-1.63-1.75-1.63a2.26,2.26,0,0,0-2,1.16l-1.06-1a3.42,3.42,0,0,1,3.2-1.65c2.19,0,3.42,1.08,3.42,3v4.27h.9v1.45Zm-1.68-2.52v-1.22h-1.51c-1.24,0-1.84.41-1.84,1.14v.3c0,.75.55,1.14,1.44,1.14C418.42,399,419.24,398.44,419.24,397.6Z" transform="translate(-5.13 -23.72)"/><path class="cls-1" d="M427.62,395.87c0-2.72,1.4-4.45,3.86-4.45a3.29,3.29,0,0,1,3.29,2.09l-1.48.69a1.76,1.76,0,0,0-1.81-1.29c-1.31,0-2,.9-2,2.21v1.52c0,1.31.67,2.21,2,2.21a2,2,0,0,0,2-1.41l1.36.72a3.36,3.36,0,0,1-3.35,2.16C429,400.32,427.62,398.58,427.62,395.87Z" transform="translate(-5.13 -23.72)"/><path class="cls-1" d="M436.19,395.87c0-2.72,1.49-4.45,3.91-4.45s3.78,1.88,3.78,4.24v.67H438v.28a2.09,2.09,0,0,0,2.24,2.24,2.48,2.48,0,0,0,2.24-1.28l1.05,1a4,4,0,0,1-3.47,1.72C437.68,400.32,436.19,398.58,436.19,395.87ZM438,395v.11h4V395a1.92,1.92,0,0,0-1.9-2.18A2,2,0,0,0,438,395Z" transform="translate(-5.13 -23.72)"/><path class="cls-1" d="M446.19,400.12v-8.5H448V393h.08a2.38,2.38,0,0,1,2.39-1.6c1.74,0,2.77,1.21,2.77,3.3v5.4h-1.79V395c0-1.32-.5-2-1.6-2-.93,0-1.85.47-1.85,1.47v5.69Z" transform="translate(-5.13 -23.72)"/><path class="cls-1" d="M458.36,400.12a1.68,1.68,0,0,1-1.88-1.85v-5.2h-1.32v-1.45h.72c.58,0,.78-.25.78-.84v-1.49h1.6v2.33h1.79v1.45h-1.79v5.6h1.66v1.45Z" transform="translate(-5.13 -23.72)"/><path class="cls-1" d="M461.67,395.87c0-2.72,1.49-4.45,3.91-4.45s3.78,1.88,3.78,4.24v.67h-5.84v.28a2.09,2.09,0,0,0,2.24,2.24,2.49,2.49,0,0,0,2.24-1.28l1,1a3.93,3.93,0,0,1-3.46,1.72C463.16,400.32,461.67,398.58,461.67,395.87Zm1.85-.83v.11h4V395c0-1.31-.72-2.18-1.89-2.18A2,2,0,0,0,463.52,395Z" transform="translate(-5.13 -23.72)"/><path class="cls-1" d="M471.66,400.12v-8.5h1.79v1.63h.08a2.24,2.24,0,0,1,2.34-1.63h.47v1.71h-.7c-1.41,0-2.19.48-2.19,1.36v5.43Z" transform="translate(-5.13 -23.72)"/><path class="cls-1" d="M478.54,402.38h-1.69a9.37,9.37,0,0,0,2.91-6.69v-1.31a9.37,9.37,0,0,0-2.91-6.69h1.69a10.72,10.72,0,0,1,0,14.69Z" transform="translate(-5.13 -23.72)"/></g><circle class="cls-6" cx="177.93" cy="356.14" r="36.54"/><path class="cls-1" d="M161.22,385.94V374.52h4.9a3.44,3.44,0,0,1,0,6.87h-3.06v4.55Zm1.84-6.17H166a1.33,1.33,0,0,0,1.49-1.42v-.78a1.33,1.33,0,0,0-1.49-1.43h-2.95Z" transform="translate(-5.13 -23.72)"/><path class="cls-1" d="M171.1,380.23c0-3.84,2-5.9,4.92-5.9s4.93,2.06,4.93,5.9-1.95,5.91-4.93,5.91S171.1,384.08,171.1,380.23Zm7.87.9v-1.8c0-2.07-1.18-3.35-2.95-3.35s-2.94,1.28-2.94,3.35v1.8c0,2.08,1.18,3.36,2.94,3.36S179,383.21,179,381.13Z" transform="translate(-5.13 -23.72)"/><path class="cls-1" d="M183.39,385.94V374.52h4.9a3.44,3.44,0,0,1,0,6.87h-3v4.55Zm1.85-6.17h2.94a1.33,1.33,0,0,0,1.49-1.42v-.78a1.33,1.33,0,0,0-1.49-1.43h-2.94Z" transform="translate(-5.13 -23.72)"/><path class="cls-1" d="M197.8,385.94V384.4H201v-8.53h-.13l-2.65,2.83-1.13-1,2.91-3.16h2.81v9.88h2.78v1.54Z" transform="translate(-5.13 -23.72)"/><circle class="cls-6" cx="670.98" cy="358.32" r="36.54"/><path class="cls-1" d="M654.27,388.12V376.71h4.91a3.44,3.44,0,0,1,0,6.87h-3.06v4.54Zm1.85-6.16h2.94a1.33,1.33,0,0,0,1.49-1.43v-.78a1.33,1.33,0,0,0-1.49-1.42h-2.94Z" transform="translate(-5.13 -23.72)"/><path class="cls-1" d="M664.15,382.41c0-3.84,2-5.9,4.93-5.9s4.92,2.06,4.92,5.9-2,5.91-4.92,5.91S664.15,386.26,664.15,382.41Zm7.87.9v-1.8c0-2.07-1.18-3.35-2.94-3.35s-3,1.28-3,3.35v1.8c0,2.08,1.18,3.36,3,3.36S672,385.39,672,383.31Z" transform="translate(-5.13 -23.72)"/><path class="cls-1" d="M676.44,388.12V376.71h4.91a3.44,3.44,0,0,1,0,6.87h-3.06v4.54Zm1.85-6.16h2.94a1.33,1.33,0,0,0,1.49-1.43v-.78a1.32,1.32,0,0,0-1.49-1.42h-2.94Z" transform="translate(-5.13 -23.72)"/><path class="cls-1" d="M698.26,388.12h-7.75v-1.76l3.65-3.26c1.14-1,1.8-2,1.8-3v-.21a1.7,1.7,0,0,0-1.85-1.79,2.13,2.13,0,0,0-2.14,1.8l-1.62-.62a3.83,3.83,0,0,1,3.91-2.78c2.32,0,3.66,1.41,3.66,3.39s-1.23,3.05-2.73,4.35l-2.68,2.3h5.75Z" transform="translate(-5.13 -23.72)"/><path d="M108.16,246.29h3.09l4.31,8.18h.14l4.31-8.18H123v16.09h-2.49V250.07h-.12l-1.26,2.61-3.53,6.42L112,252.68l-1.27-2.61h-.12v12.31h-2.49Z" transform="translate(-5.13 -23.72)"/><path d="M134.17,260.39h-.09a3.29,3.29,0,0,1-3.36,2.26c-2.47,0-3.92-1.68-3.92-4.63v-7.63h2.51v7.31c0,1.82.76,2.79,2.31,2.79,1.29,0,2.55-.67,2.55-2.08v-8h2.52v12h-2.52Z" transform="translate(-5.13 -23.72)"/><path d="M143,262.38a2.29,2.29,0,0,1-2.56-2.49V245.33H143v15h1.66v2.05Z" transform="translate(-5.13 -23.72)"/><path d="M150.42,262.38a2.38,2.38,0,0,1-2.65-2.61v-7.32H145.9v-2.06h1c.83,0,1.11-.34,1.11-1.17v-2.1h2.26v3.27h2.51v2.06h-2.51v7.88h2.32v2.05Z" transform="translate(-5.13 -23.72)"/><path d="M155.46,246.94v-.39c0-.76.46-1.32,1.5-1.32s1.47.56,1.47,1.32v.39c0,.76-.44,1.31-1.47,1.31S155.46,247.7,155.46,246.94Zm.23,3.45h2.51v12h-2.51Z" transform="translate(-5.13 -23.72)"/><path d="M161,262.38v-2l6.43-7.9h-6.22v-2.06h9.19v1.94l-6.52,8h6.68v2.05Z" transform="translate(-5.13 -23.72)"/><path d="M172.32,256.39c0-3.83,2.17-6.27,5.51-6.27s5.51,2.44,5.51,6.27-2.17,6.26-5.51,6.26S172.32,260.21,172.32,256.39Zm8.37,1v-2c0-2.12-1.15-3.18-2.86-3.18s-2.86,1.06-2.86,3.18v2c0,2.12,1.15,3.18,2.86,3.18S180.69,259.52,180.69,257.4Z" transform="translate(-5.13 -23.72)"/><path d="M186.31,262.38v-12h2.51v2h.11a3.35,3.35,0,0,1,3.37-2.26c2.44,0,3.89,1.7,3.89,4.65v7.61h-2.51V255.1c0-1.87-.71-2.82-2.26-2.82-1.31,0-2.6.67-2.6,2.08v8Z" transform="translate(-5.13 -23.72)"/><path d="M199.05,256.39c0-3.83,2.09-6.27,5.5-6.27s5.33,2.65,5.33,6V257h-8.23v.39a2.94,2.94,0,0,0,3.16,3.16,3.5,3.5,0,0,0,3.15-1.8l1.48,1.45a5.57,5.57,0,0,1-4.89,2.42C201.14,262.65,199.05,260.21,199.05,256.39Zm2.6-1.18v.16h5.58v-.23c0-1.84-1-3.06-2.68-3.06A2.89,2.89,0,0,0,201.65,255.21Z" transform="translate(-5.13 -23.72)"/><path d="M218.47,262.38v-12H221v2.31h.11a3.19,3.19,0,0,1,3.3-2.31h.67v2.42h-1c-2,0-3.08.67-3.08,1.92v7.65Z" transform="translate(-5.13 -23.72)"/><path d="M226.55,256.39c0-3.83,2.1-6.27,5.51-6.27s5.32,2.65,5.32,6V257h-8.22v.39a2.94,2.94,0,0,0,3.15,3.16,3.5,3.5,0,0,0,3.16-1.8l1.47,1.45a5.55,5.55,0,0,1-4.88,2.42C228.65,262.65,226.55,260.21,226.55,256.39Zm2.61-1.18v.16h5.57v-.23c0-1.84-1-3.06-2.67-3.06A2.88,2.88,0,0,0,229.16,255.21Z" transform="translate(-5.13 -23.72)"/><path d="M244.78,267.26c-3.92,0-5.44-1.06-5.44-2.88a2.24,2.24,0,0,1,2-2.3v-.26A1.82,1.82,0,0,1,240,260c0-1.24,1-1.84,2.12-2.12v-.09a3.74,3.74,0,0,1-2.19-3.55c0-2.44,1.73-4.1,4.77-4.1a5.68,5.68,0,0,1,2.17.37v-.33c0-1.06.5-1.7,1.56-1.7h1.85v2h-2.45V251a3.75,3.75,0,0,1,1.68,3.25c0,2.42-1.75,4-4.79,4a6.08,6.08,0,0,1-1.56-.18c-.6.21-1.16.6-1.16,1.2s.63.9,1.69.9h2.95c2.94,0,4.19,1.24,4.19,3.31C250.86,266,249.08,267.26,244.78,267.26Zm1.54-4.84h-4.06a1.55,1.55,0,0,0-.83,1.38c0,1,.72,1.64,2.59,1.64h1.56c2,0,2.93-.55,2.93-1.66C248.51,263,248,262.42,246.32,262.42Zm.76-8V254c0-1.36-.85-2-2.33-2s-2.32.67-2.32,2v.46c0,1.36.85,2,2.32,2S247.08,255.79,247.08,254.43Z" transform="translate(-5.13 -23.72)"/><path d="M252.68,246.94v-.39c0-.76.46-1.32,1.49-1.32s1.48.56,1.48,1.32v.39c0,.76-.44,1.31-1.48,1.31S252.68,247.7,252.68,246.94Zm.23,3.45h2.51v12h-2.51Z" transform="translate(-5.13 -23.72)"/><path d="M258.39,256.39c0-3.83,2.17-6.27,5.51-6.27s5.5,2.44,5.5,6.27-2.16,6.26-5.5,6.26S258.39,260.21,258.39,256.39Zm8.36,1v-2c0-2.12-1.15-3.18-2.85-3.18s-2.86,1.06-2.86,3.18v2c0,2.12,1.15,3.18,2.86,3.18S266.75,259.52,266.75,257.4Z" transform="translate(-5.13 -23.72)"/><path d="M272.37,262.38v-12h2.52v2H275a3.34,3.34,0,0,1,3.36-2.26c2.45,0,3.9,1.7,3.9,4.65v7.61h-2.51V255.1c0-1.87-.72-2.82-2.26-2.82-1.31,0-2.6.67-2.6,2.08v8Z" transform="translate(-5.13 -23.72)"/><path d="M295.3,244.87h2.37a13.17,13.17,0,0,0-4.1,9.42v1.84a13.21,13.21,0,0,0,4.1,9.43H295.3c-2.31-2-4.11-5.88-4.11-10.35S293,246.85,295.3,244.87Z" transform="translate(-5.13 -23.72)"/><path d="M299.65,246.29h3.09l4.31,8.18h.13l4.31-8.18h2.95v16.09H312V250.07h-.11l-1.27,2.61-3.52,6.42-3.53-6.42-1.27-2.61h-.11v12.31h-2.49Z" transform="translate(-5.13 -23.72)"/><path d="M329.37,262.38H317.46v-2.33l8.73-11.45h-8.27v-2.31h11.2v2.33l-8.74,11.45h9Z" transform="translate(-5.13 -23.72)"/><path d="M335,262.38h-2.6V246.29h6.93c2.88,0,4.65,1.87,4.65,4.84a4.25,4.25,0,0,1-3.13,4.47l3.48,6.78h-2.9l-3.23-6.5H335Zm4.15-8.69a1.86,1.86,0,0,0,2.09-2v-1.11a1.87,1.87,0,0,0-2.09-2H335v5.12Z" transform="translate(-5.13 -23.72)"/><path d="M347.87,265.56h-2.38a13.21,13.21,0,0,0,4.1-9.43v-1.84a13.17,13.17,0,0,0-4.1-9.42h2.38c2.3,2,4.1,5.87,4.1,10.34S350.17,263.57,347.87,265.56Z" transform="translate(-5.13 -23.72)"/><path d="M797.94,254.33c0-5.41,2.74-8.31,6.94-8.31s6.93,2.9,6.93,8.31-2.74,8.32-6.93,8.32S797.94,259.75,797.94,254.33ZM809,255.6v-2.53c0-2.93-1.65-4.73-4.14-4.73s-4.15,1.8-4.15,4.73v2.53c0,2.93,1.66,4.73,4.15,4.73S809,258.53,809,255.6Z" transform="translate(-5.13 -23.72)"/><path d="M818.38,262.38a2.38,2.38,0,0,1-2.65-2.61v-7.32h-1.87v-2.06h1c.83,0,1.11-.34,1.11-1.17v-2.1h2.26v3.27h2.51v2.06h-2.51v7.88h2.32v2.05Z" transform="translate(-5.13 -23.72)"/><path d="M823.65,245.33h2.51v7h.12a3.33,3.33,0,0,1,3.36-2.26c2.44,0,3.9,1.7,3.9,4.65v7.61H831v-7.31c0-1.84-.71-2.79-2.25-2.79-1.32,0-2.61.67-2.61,2.05v8h-2.51Z" transform="translate(-5.13 -23.72)"/><path d="M836.39,256.39c0-3.83,2.1-6.27,5.51-6.27s5.32,2.65,5.32,6V257H839v.39a2.94,2.94,0,0,0,3.16,3.16,3.52,3.52,0,0,0,3.16-1.8l1.47,1.45a5.56,5.56,0,0,1-4.88,2.42C838.49,262.65,836.39,260.21,836.39,256.39Zm2.6-1.18v.16h5.58v-.23c0-1.84-1-3.06-2.67-3.06A2.89,2.89,0,0,0,839,255.21Z" transform="translate(-5.13 -23.72)"/><path d="M850.19,262.38v-12h2.51v2.31h.12a3.16,3.16,0,0,1,3.29-2.31h.67v2.42h-1c-2,0-3.09.67-3.09,1.92v7.65Z" transform="translate(-5.13 -23.72)"/><path d="M872.35,260.39h-.11a3.43,3.43,0,0,1-3.37,2.26c-3,0-4.77-2.32-4.77-6.26s1.75-6.27,4.77-6.27a3.4,3.4,0,0,1,3.37,2.26h.11v-7h2.51v17h-2.51Zm0-1.95v-4.11c0-1.22-1.2-2.05-2.72-2.05a2.82,2.82,0,0,0-2.88,3.07v2.07a2.81,2.81,0,0,0,2.88,3.07C871.15,260.49,872.35,259.66,872.35,258.44Z" transform="translate(-5.13 -23.72)"/><path d="M887.42,262.38a2.08,2.08,0,0,1-2.17-2h-.11a3.33,3.33,0,0,1-3.5,2.28c-2.47,0-3.88-1.4-3.88-3.57,0-2.37,1.78-3.59,5.12-3.59h2.17v-1c0-1.45-.79-2.3-2.47-2.3a3.19,3.19,0,0,0-2.86,1.63l-1.49-1.35a4.82,4.82,0,0,1,4.51-2.33c3.09,0,4.82,1.52,4.82,4.19v6h1.26v2.05Zm-2.37-3.55V257.1h-2.12c-1.76,0-2.61.58-2.61,1.61v.42c0,1.06.79,1.61,2,1.61C883.89,260.74,885.05,260,885.05,258.83Z" transform="translate(-5.13 -23.72)"/><path d="M894.72,262.38a2.38,2.38,0,0,1-2.65-2.61v-7.32h-1.86v-2.06h1c.83,0,1.11-.34,1.11-1.17v-2.1h2.25v3.27h2.51v2.06h-2.51v7.88h2.33v2.05Z" transform="translate(-5.13 -23.72)"/><path d="M908.77,262.38a2.07,2.07,0,0,1-2.16-2h-.12a3.33,3.33,0,0,1-3.5,2.28c-2.46,0-3.87-1.4-3.87-3.57,0-2.37,1.78-3.59,5.12-3.59h2.16v-1c0-1.45-.78-2.3-2.46-2.3a3.19,3.19,0,0,0-2.86,1.63l-1.5-1.35a4.85,4.85,0,0,1,4.52-2.33c3.09,0,4.81,1.52,4.81,4.19v6h1.27v2.05Zm-2.37-3.55V257.1h-2.12c-1.75,0-2.6.58-2.6,1.61v.42c0,1.06.78,1.61,2,1.61C905.25,260.74,906.4,260,906.4,258.83Z" transform="translate(-5.13 -23.72)"/><path d="M917.64,256.39c0-3.83,2-6.27,5.44-6.27a4.61,4.61,0,0,1,4.63,2.95l-2.07,1a2.49,2.49,0,0,0-2.56-1.83c-1.84,0-2.79,1.27-2.79,3.12v2.14c0,1.84,1,3.11,2.79,3.11a2.87,2.87,0,0,0,2.81-2l1.91,1a4.71,4.71,0,0,1-4.72,3C919.62,262.65,917.64,260.21,917.64,256.39Z" transform="translate(-5.13 -23.72)"/><path d="M929.44,256.39c0-3.83,2.09-6.27,5.5-6.27s5.33,2.65,5.33,6V257H932v.39a2.94,2.94,0,0,0,3.16,3.16,3.5,3.5,0,0,0,3.15-1.8l1.48,1.45a5.57,5.57,0,0,1-4.89,2.42C931.53,262.65,929.44,260.21,929.44,256.39Zm2.6-1.18v.16h5.58v-.23c0-1.84-1-3.06-2.68-3.06A2.89,2.89,0,0,0,932,255.21Z" transform="translate(-5.13 -23.72)"/><path d="M943.24,262.38v-12h2.51v2h.11a3.35,3.35,0,0,1,3.37-2.26c2.44,0,3.89,1.7,3.89,4.65v7.61h-2.51V255.1c0-1.87-.71-2.82-2.26-2.82-1.31,0-2.6.67-2.6,2.08v8Z" transform="translate(-5.13 -23.72)"/><path d="M960.1,262.38a2.38,2.38,0,0,1-2.65-2.61v-7.32h-1.87v-2.06h1c.83,0,1.1-.34,1.1-1.17v-2.1H960v3.27h2.51v2.06H960v7.88h2.33v2.05Z" transform="translate(-5.13 -23.72)"/><path d="M964.48,256.39c0-3.83,2.09-6.27,5.5-6.27s5.33,2.65,5.33,6V257h-8.23v.39a2.94,2.94,0,0,0,3.16,3.16,3.5,3.5,0,0,0,3.15-1.8l1.48,1.45a5.57,5.57,0,0,1-4.89,2.42C966.57,262.65,964.48,260.21,964.48,256.39Zm2.6-1.18v.16h5.58v-.23c0-1.84-1-3.06-2.68-3.06A2.89,2.89,0,0,0,967.08,255.21Z" transform="translate(-5.13 -23.72)"/><path d="M978.28,262.38v-12h2.51v2.31h.11a3.18,3.18,0,0,1,3.3-2.31h.67v2.42h-1c-2,0-3.08.67-3.08,1.92v7.65Z" transform="translate(-5.13 -23.72)"/><path d="M986.22,260.39l1.62-1.47a4.21,4.21,0,0,0,3.38,1.7c1.45,0,2.19-.59,2.19-1.61,0-.76-.46-1.33-1.7-1.5l-1.11-.13c-2.44-.3-3.94-1.36-3.94-3.58s1.82-3.68,4.45-3.68a5.41,5.41,0,0,1,4.47,1.91L994,253.51a3.79,3.79,0,0,0-2.92-1.36c-1.38,0-2,.6-2,1.49s.58,1.34,1.84,1.55l1.11.14c2.63.39,3.8,1.54,3.8,3.47,0,2.31-1.86,3.85-4.74,3.85A5.79,5.79,0,0,1,986.22,260.39Z" transform="translate(-5.13 -23.72)"/><g id="data_center" data-name="data center"><g class="cls-7"><rect class="cls-8" x="791.66" y="274.95" width="204.27" height="69.11"/></g><path class="cls-1" d="M838.09,325.49h5.69c4.1,0,6.79,2.67,6.79,8s-2.69,8-6.79,8h-5.69Zm5.69,13.78c2.39,0,4-1.55,4-4.45v-2.58c0-2.91-1.62-4.45-4-4.45h-3.09v11.48Z" transform="translate(-5.13 -23.72)"/><path class="cls-1" d="M862.6,341.57a2.08,2.08,0,0,1-2.17-2h-.11a3.34,3.34,0,0,1-3.5,2.29c-2.47,0-3.87-1.41-3.87-3.58,0-2.37,1.77-3.59,5.11-3.59h2.17v-1c0-1.46-.79-2.31-2.47-2.31A3.18,3.18,0,0,0,854.9,333l-1.49-1.36a4.82,4.82,0,0,1,4.51-2.33c3.09,0,4.82,1.52,4.82,4.19v6H864v2.05ZM860.23,338v-1.73h-2.12c-1.76,0-2.61.58-2.61,1.62v.41c0,1.06.79,1.61,2,1.61C859.07,339.93,860.23,339.2,860.23,338Z" transform="translate(-5.13 -23.72)"/><path class="cls-1" d="M869.9,341.57a2.38,2.38,0,0,1-2.65-2.6v-7.33h-1.86v-2.05h1c.83,0,1.11-.35,1.11-1.18v-2.09h2.25v3.27h2.51v2.05h-2.51v7.88h2.33v2.05Z" transform="translate(-5.13 -23.72)"/><path class="cls-1" d="M884,341.57a2.07,2.07,0,0,1-2.17-2h-.12a3.34,3.34,0,0,1-3.5,2.29c-2.46,0-3.87-1.41-3.87-3.58,0-2.37,1.78-3.59,5.12-3.59h2.16v-1c0-1.46-.78-2.31-2.46-2.31a3.18,3.18,0,0,0-2.86,1.64l-1.5-1.36a4.85,4.85,0,0,1,4.52-2.33c3.09,0,4.81,1.52,4.81,4.19v6h1.27v2.05ZM881.58,338v-1.73h-2.12c-1.75,0-2.6.58-2.6,1.62v.41c0,1.06.78,1.61,2,1.61C880.43,339.93,881.58,339.2,881.58,338Z" transform="translate(-5.13 -23.72)"/><path class="cls-1" d="M892.82,335.58c0-3.83,2-6.27,5.44-6.27a4.62,4.62,0,0,1,4.63,2.95l-2.07,1a2.48,2.48,0,0,0-2.56-1.82c-1.84,0-2.79,1.27-2.79,3.11v2.14c0,1.84.95,3.11,2.79,3.11a2.87,2.87,0,0,0,2.81-2l1.91,1a4.72,4.72,0,0,1-4.72,3.05C894.8,341.85,892.82,339.4,892.82,335.58Z" transform="translate(-5.13 -23.72)"/><path class="cls-1" d="M904.62,335.58c0-3.83,2.09-6.27,5.5-6.27s5.33,2.65,5.33,6v.94h-8.23v.4a2.94,2.94,0,0,0,3.16,3.15,3.54,3.54,0,0,0,3.16-1.79l1.47,1.45a5.57,5.57,0,0,1-4.89,2.42C906.71,341.85,904.62,339.4,904.62,335.58Zm2.6-1.18v.16h5.58v-.23c0-1.84-1-3.06-2.68-3.06A2.89,2.89,0,0,0,907.22,334.4Z" transform="translate(-5.13 -23.72)"/><path class="cls-1" d="M918.42,341.57v-12h2.51v2H921a3.35,3.35,0,0,1,3.37-2.26c2.44,0,3.89,1.71,3.89,4.66v7.6h-2.51v-7.28c0-1.87-.71-2.81-2.26-2.81-1.31,0-2.6.67-2.6,2.07v8Z" transform="translate(-5.13 -23.72)"/><path class="cls-1" d="M935.28,341.57a2.38,2.38,0,0,1-2.65-2.6v-7.33h-1.86v-2.05h1c.83,0,1.1-.35,1.1-1.18v-2.09h2.26v3.27h2.51v2.05h-2.51v7.88h2.33v2.05Z" transform="translate(-5.13 -23.72)"/><path class="cls-1" d="M939.66,335.58c0-3.83,2.09-6.27,5.5-6.27s5.33,2.65,5.33,6v.94h-8.23v.4a2.94,2.94,0,0,0,3.16,3.15,3.51,3.51,0,0,0,3.15-1.79l1.48,1.45a5.57,5.57,0,0,1-4.89,2.42C941.75,341.85,939.66,339.4,939.66,335.58Zm2.6-1.18v.16h5.58v-.23c0-1.84-1-3.06-2.68-3.06A2.89,2.89,0,0,0,942.26,334.4Z" transform="translate(-5.13 -23.72)"/><path class="cls-1" d="M953.46,341.57v-12H956v2.3h.11a3.17,3.17,0,0,1,3.3-2.3h.67V332h-1c-2,0-3.08.67-3.08,1.91v7.65Z" transform="translate(-5.13 -23.72)"/></g><g id="data_center-2" data-name="data center"><g class="cls-7"><rect class="cls-8" x="791.66" y="380.62" width="204.27" height="69.11"/></g><path class="cls-1" d="M838.09,431.16h5.69c4.1,0,6.79,2.67,6.79,8s-2.69,8-6.79,8h-5.69Zm5.69,13.78c2.39,0,4-1.54,4-4.45v-2.58c0-2.9-1.62-4.44-4-4.44h-3.09v11.47Z" transform="translate(-5.13 -23.72)"/><path class="cls-1" d="M862.6,447.24a2.08,2.08,0,0,1-2.17-2h-.11a3.33,3.33,0,0,1-3.5,2.28c-2.47,0-3.87-1.4-3.87-3.57,0-2.37,1.77-3.6,5.11-3.6h2.17v-1c0-1.45-.79-2.3-2.47-2.3a3.19,3.19,0,0,0-2.86,1.63l-1.49-1.36a4.84,4.84,0,0,1,4.51-2.32c3.09,0,4.82,1.52,4.82,4.19v6H864v2.05Zm-2.37-3.54V442h-2.12c-1.76,0-2.61.57-2.61,1.61V444c0,1.06.79,1.61,2,1.61C859.07,445.61,860.23,444.87,860.23,443.7Z" transform="translate(-5.13 -23.72)"/><path class="cls-1" d="M869.9,447.24a2.37,2.37,0,0,1-2.65-2.6v-7.33h-1.86v-2.05h1c.83,0,1.11-.34,1.11-1.17V432h2.25v3.27h2.51v2.05h-2.51v7.88h2.33v2.05Z" transform="translate(-5.13 -23.72)"/><path class="cls-1" d="M884,447.24a2.07,2.07,0,0,1-2.17-2h-.12a3.33,3.33,0,0,1-3.5,2.28c-2.46,0-3.87-1.4-3.87-3.57,0-2.37,1.78-3.6,5.12-3.6h2.16v-1c0-1.45-.78-2.3-2.46-2.3a3.19,3.19,0,0,0-2.86,1.63l-1.5-1.36a4.87,4.87,0,0,1,4.52-2.32c3.09,0,4.81,1.52,4.81,4.19v6h1.27v2.05Zm-2.38-3.54V442h-2.12c-1.75,0-2.6.57-2.6,1.61V444c0,1.06.78,1.61,2,1.61C880.43,445.61,881.58,444.87,881.58,443.7Z" transform="translate(-5.13 -23.72)"/><path class="cls-1" d="M892.82,441.25c0-3.82,2-6.26,5.44-6.26a4.61,4.61,0,0,1,4.63,2.95l-2.07,1a2.49,2.49,0,0,0-2.56-1.82c-1.84,0-2.79,1.27-2.79,3.11v2.15c0,1.84.95,3.11,2.79,3.11a2.88,2.88,0,0,0,2.81-2l1.91,1a4.71,4.71,0,0,1-4.72,3C894.8,447.52,892.82,445.08,892.82,441.25Z" transform="translate(-5.13 -23.72)"/><path class="cls-1" d="M904.62,441.25c0-3.82,2.09-6.26,5.5-6.26s5.33,2.65,5.33,6v.95h-8.23v.39a2.94,2.94,0,0,0,3.16,3.16,3.53,3.53,0,0,0,3.16-1.8L915,445.1a5.57,5.57,0,0,1-4.89,2.42C906.71,447.52,904.62,445.08,904.62,441.25Zm2.6-1.17v.16h5.58V440c0-1.84-1-3.07-2.68-3.07A2.89,2.89,0,0,0,907.22,440.08Z" transform="translate(-5.13 -23.72)"/><path class="cls-1" d="M918.42,447.24v-12h2.51v2H921a3.34,3.34,0,0,1,3.37-2.25c2.44,0,3.89,1.7,3.89,4.65v7.6h-2.51V440c0-1.86-.71-2.81-2.26-2.81-1.31,0-2.6.67-2.6,2.08v8Z" transform="translate(-5.13 -23.72)"/><path class="cls-1" d="M935.28,447.24a2.37,2.37,0,0,1-2.65-2.6v-7.33h-1.86v-2.05h1c.83,0,1.1-.34,1.1-1.17V432h2.26v3.27h2.51v2.05h-2.51v7.88h2.33v2.05Z" transform="translate(-5.13 -23.72)"/><path class="cls-1" d="M939.66,441.25c0-3.82,2.09-6.26,5.5-6.26s5.33,2.65,5.33,6v.95h-8.23v.39a2.94,2.94,0,0,0,3.16,3.16,3.5,3.5,0,0,0,3.15-1.8l1.48,1.45a5.57,5.57,0,0,1-4.89,2.42C941.75,447.52,939.66,445.08,939.66,441.25Zm2.6-1.17v.16h5.58V440c0-1.84-1-3.07-2.68-3.07A2.89,2.89,0,0,0,942.26,440.08Z" transform="translate(-5.13 -23.72)"/><path class="cls-1" d="M953.46,447.24v-12H956v2.31h.11a3.18,3.18,0,0,1,3.3-2.31h.67v2.42h-1c-2,0-3.08.67-3.08,1.91v7.65Z" transform="translate(-5.13 -23.72)"/></g><g id="data_center-3" data-name="data center"><g class="cls-7"><rect class="cls-8" x="1028.37" y="274.95" width="204.27" height="69.11"/></g><path class="cls-1" d="M1074.8,325.49h5.69c4.1,0,6.79,2.67,6.79,8s-2.69,8-6.79,8h-5.69Zm5.69,13.78c2.39,0,4-1.55,4-4.45v-2.58c0-2.91-1.62-4.45-4-4.45h-3.09v11.48Z" transform="translate(-5.13 -23.72)"/><path class="cls-1" d="M1099.31,341.57a2.07,2.07,0,0,1-2.17-2H1097a3.34,3.34,0,0,1-3.51,2.29c-2.46,0-3.87-1.41-3.87-3.58,0-2.37,1.78-3.59,5.12-3.59h2.17v-1c0-1.46-.79-2.31-2.47-2.31a3.18,3.18,0,0,0-2.86,1.64l-1.5-1.36a4.85,4.85,0,0,1,4.52-2.33c3.09,0,4.82,1.52,4.82,4.19v6h1.26v2.05Zm-2.37-3.55v-1.73h-2.12c-1.76,0-2.61.58-2.61,1.62v.41c0,1.06.79,1.61,2,1.61C1095.78,339.93,1096.94,339.2,1096.94,338Z" transform="translate(-5.13 -23.72)"/><path class="cls-1" d="M1106.61,341.57A2.38,2.38,0,0,1,1104,339v-7.33h-1.87v-2.05h1c.83,0,1.1-.35,1.1-1.18v-2.09h2.26v3.27H1109v2.05h-2.51v7.88h2.33v2.05Z" transform="translate(-5.13 -23.72)"/><path class="cls-1" d="M1120.66,341.57a2.07,2.07,0,0,1-2.16-2h-.12a3.34,3.34,0,0,1-3.5,2.29c-2.46,0-3.87-1.41-3.87-3.58,0-2.37,1.77-3.59,5.11-3.59h2.17v-1c0-1.46-.78-2.31-2.46-2.31A3.18,3.18,0,0,0,1113,333l-1.5-1.36a4.84,4.84,0,0,1,4.52-2.33c3.08,0,4.81,1.52,4.81,4.19v6h1.27v2.05Zm-2.37-3.55v-1.73h-2.12c-1.75,0-2.6.58-2.6,1.62v.41c0,1.06.78,1.61,2,1.61C1117.14,339.93,1118.29,339.2,1118.29,338Z" transform="translate(-5.13 -23.72)"/><path class="cls-1" d="M1129.53,335.58c0-3.83,2-6.27,5.44-6.27a4.62,4.62,0,0,1,4.63,2.95l-2.07,1a2.48,2.48,0,0,0-2.56-1.82c-1.84,0-2.79,1.27-2.79,3.11v2.14c0,1.84,1,3.11,2.79,3.11a2.87,2.87,0,0,0,2.81-2l1.91,1a4.72,4.72,0,0,1-4.72,3.05C1131.51,341.85,1129.53,339.4,1129.53,335.58Z" transform="translate(-5.13 -23.72)"/><path class="cls-1" d="M1141.33,335.58c0-3.83,2.09-6.27,5.5-6.27s5.33,2.65,5.33,6v.94h-8.23v.4a2.94,2.94,0,0,0,3.16,3.15,3.51,3.51,0,0,0,3.15-1.79l1.48,1.45a5.57,5.57,0,0,1-4.89,2.42C1143.42,341.85,1141.33,339.4,1141.33,335.58Zm2.6-1.18v.16h5.58v-.23c0-1.84-1-3.06-2.68-3.06A2.89,2.89,0,0,0,1143.93,334.4Z" transform="translate(-5.13 -23.72)"/><path class="cls-1" d="M1155.13,341.57v-12h2.51v2h.11a3.35,3.35,0,0,1,3.37-2.26c2.44,0,3.89,1.71,3.89,4.66v7.6h-2.51v-7.28c0-1.87-.71-2.81-2.26-2.81-1.31,0-2.6.67-2.6,2.07v8Z" transform="translate(-5.13 -23.72)"/><path class="cls-1" d="M1172,341.57a2.38,2.38,0,0,1-2.65-2.6v-7.33h-1.87v-2.05h1c.83,0,1.1-.35,1.1-1.18v-2.09h2.26v3.27h2.51v2.05h-2.51v7.88h2.33v2.05Z" transform="translate(-5.13 -23.72)"/><path class="cls-1" d="M1176.37,335.58c0-3.83,2.09-6.27,5.5-6.27s5.32,2.65,5.32,6v.94H1179v.4a2.94,2.94,0,0,0,3.16,3.15,3.51,3.51,0,0,0,3.15-1.79l1.48,1.45a5.57,5.57,0,0,1-4.89,2.42C1178.46,341.85,1176.37,339.4,1176.37,335.58Zm2.6-1.18v.16h5.58v-.23c0-1.84-1-3.06-2.68-3.06A2.88,2.88,0,0,0,1179,334.4Z" transform="translate(-5.13 -23.72)"/><path class="cls-1" d="M1190.17,341.57v-12h2.51v2.3h.11a3.17,3.17,0,0,1,3.3-2.3h.66V332h-1c-2,0-3.08.67-3.08,1.91v7.65Z" transform="translate(-5.13 -23.72)"/></g><g id="data_center-4" data-name="data center"><g class="cls-7"><rect class="cls-8" x="1028.37" y="380.62" width="204.27" height="69.11"/></g><path class="cls-1" d="M1074.8,431.16h5.69c4.1,0,6.79,2.67,6.79,8s-2.69,8-6.79,8h-5.69Zm5.69,13.78c2.39,0,4-1.54,4-4.45v-2.58c0-2.9-1.62-4.44-4-4.44h-3.09v11.47Z" transform="translate(-5.13 -23.72)"/><path class="cls-1" d="M1099.31,447.24a2.07,2.07,0,0,1-2.17-2H1097a3.33,3.33,0,0,1-3.51,2.28c-2.46,0-3.87-1.4-3.87-3.57,0-2.37,1.78-3.6,5.12-3.6h2.17v-1c0-1.45-.79-2.3-2.47-2.3a3.19,3.19,0,0,0-2.86,1.63l-1.5-1.36a4.87,4.87,0,0,1,4.52-2.32c3.09,0,4.82,1.52,4.82,4.19v6h1.26v2.05Zm-2.37-3.54V442h-2.12c-1.76,0-2.61.57-2.61,1.61V444c0,1.06.79,1.61,2,1.61C1095.78,445.61,1096.94,444.87,1096.94,443.7Z" transform="translate(-5.13 -23.72)"/><path class="cls-1" d="M1106.61,447.24a2.37,2.37,0,0,1-2.65-2.6v-7.33h-1.87v-2.05h1c.83,0,1.1-.34,1.1-1.17V432h2.26v3.27H1109v2.05h-2.51v7.88h2.33v2.05Z" transform="translate(-5.13 -23.72)"/><path class="cls-1" d="M1120.66,447.24a2.07,2.07,0,0,1-2.16-2h-.12a3.33,3.33,0,0,1-3.5,2.28c-2.46,0-3.87-1.4-3.87-3.57,0-2.37,1.77-3.6,5.11-3.6h2.17v-1c0-1.45-.78-2.3-2.46-2.3a3.19,3.19,0,0,0-2.86,1.63l-1.5-1.36A4.85,4.85,0,0,1,1116,435c3.08,0,4.81,1.52,4.81,4.19v6h1.27v2.05Zm-2.37-3.54V442h-2.12c-1.75,0-2.6.57-2.6,1.61V444c0,1.06.78,1.61,2,1.61C1117.14,445.61,1118.29,444.87,1118.29,443.7Z" transform="translate(-5.13 -23.72)"/><path class="cls-1" d="M1129.53,441.25c0-3.82,2-6.26,5.44-6.26a4.61,4.61,0,0,1,4.63,2.95l-2.07,1a2.49,2.49,0,0,0-2.56-1.82c-1.84,0-2.79,1.27-2.79,3.11v2.15c0,1.84,1,3.11,2.79,3.11a2.88,2.88,0,0,0,2.81-2l1.91,1a4.71,4.71,0,0,1-4.72,3C1131.51,447.52,1129.53,445.08,1129.53,441.25Z" transform="translate(-5.13 -23.72)"/><path class="cls-1" d="M1141.33,441.25c0-3.82,2.09-6.26,5.5-6.26s5.33,2.65,5.33,6v.95h-8.23v.39a2.94,2.94,0,0,0,3.16,3.16,3.5,3.5,0,0,0,3.15-1.8l1.48,1.45a5.57,5.57,0,0,1-4.89,2.42C1143.42,447.52,1141.33,445.08,1141.33,441.25Zm2.6-1.17v.16h5.58V440c0-1.84-1-3.07-2.68-3.07A2.89,2.89,0,0,0,1143.93,440.08Z" transform="translate(-5.13 -23.72)"/><path class="cls-1" d="M1155.13,447.24v-12h2.51v2h.11a3.34,3.34,0,0,1,3.37-2.25c2.44,0,3.89,1.7,3.89,4.65v7.6h-2.51V440c0-1.86-.71-2.81-2.26-2.81-1.31,0-2.6.67-2.6,2.08v8Z" transform="translate(-5.13 -23.72)"/><path class="cls-1" d="M1172,447.24a2.37,2.37,0,0,1-2.65-2.6v-7.33h-1.87v-2.05h1c.83,0,1.1-.34,1.1-1.17V432h2.26v3.27h2.51v2.05h-2.51v7.88h2.33v2.05Z" transform="translate(-5.13 -23.72)"/><path class="cls-1" d="M1176.37,441.25c0-3.82,2.09-6.26,5.5-6.26s5.32,2.65,5.32,6v.95H1179v.39a2.94,2.94,0,0,0,3.16,3.16,3.5,3.5,0,0,0,3.15-1.8l1.48,1.45a5.57,5.57,0,0,1-4.89,2.42C1178.46,447.52,1176.37,445.08,1176.37,441.25Zm2.6-1.17v.16h5.58V440c0-1.84-1-3.07-2.68-3.07A2.89,2.89,0,0,0,1179,440.08Z" transform="translate(-5.13 -23.72)"/><path class="cls-1" d="M1190.17,447.24v-12h2.51v2.31h.11a3.18,3.18,0,0,1,3.3-2.31h.66v2.42h-1c-2,0-3.08.67-3.08,1.91v7.65Z" transform="translate(-5.13 -23.72)"/></g></svg>
