<?xml version="1.0" encoding="UTF-8"?>
<svg width="750px" height="535px" viewBox="0 0 750 535" version="1.1" xmlns="http://www.w3.org/2000/svg" xmlns:xlink="http://www.w3.org/1999/xlink">
    <!-- Generator: Sketch 52.2 (67145) - http://www.bohemiancoding.com/sketch -->
    <title>IBM-Cloud-Platform</title>
    <desc>Created with Sketch.</desc>
    <g id="IBM-Cloud-Platform" stroke="none" stroke-width="1" fill="none" fill-rule="evenodd">
        <polygon id="bottom" fill="#F4F7FB" points="418.281085 408 338 440.209674 418.180479 480.162162 497.272894 440.209674"></polygon>
        <g id="6" transform="translate(338.000000, 352.000000)">
            <polygon id="Fill-1" fill-opacity="0.65" fill="#D1D6F5" points="80.6060606 0 0.42558181 32.2096739 1.21212121 50.5135135 80.6060606 89 159.698476 48.7094595 159.698476 32.2096739"></polygon>
            <polygon id="Fill-2" fill-opacity="0.65" fill="#242C6C" points="80.6060606 72.1621622 80.6060606 89 159.698476 48.7094595 159.698476 32.2096739"></polygon>
            <polygon id="Fill-3" fill="#628CFF" points="80.7066667 0 0.42558181 32.2096739 80.6060606 72.1621622 159.698476 32.2096739"></polygon>
            <polygon id="Fill-3" fill="#628CFF" points="80.7066667 0 0.42558181 32.2096739 80.6060606 72.1621622 159.698476 32.2096739"></polygon>
        </g>
        <g id="5" transform="translate(338.000000, 295.000000)">
            <polygon id="Fill-1" fill-opacity="0.65" fill="#D1D6F5" points="80.6060606 0 0.42558181 32.2096739 1.21212121 50.5135135 80.6060606 89 159.698476 48.7094595 159.698476 32.2096739"></polygon>
            <polygon id="Fill-2" fill-opacity="0.65" fill="#242C6C" points="80.6060606 72.1621622 80.6060606 89 159.698476 48.7094595 159.698476 32.2096739"></polygon>
            <polygon id="Fill-3" fill="#628CFF" points="80.7066667 0 0.42558181 32.2096739 80.6060606 72.1621622 159.698476 32.2096739"></polygon>
        </g>
        <g id="4" transform="translate(338.000000, 239.000000)">
            <polygon id="Fill-1" fill-opacity="0.65" fill="#D1D6F5" points="80.6060606 0 0.42558181 32.2096739 1.21212121 50.5135135 80.6060606 89 159.698476 48.7094595 159.698476 32.2096739"></polygon>
            <polygon id="Fill-2" fill-opacity="0.65" fill="#242C6C" points="80.6060606 72.1621622 80.6060606 89 159.698476 48.7094595 159.698476 32.2096739"></polygon>
            <polygon id="Fill-3" fill="#628CFF" points="80.7066667 0 0.42558181 32.2096739 80.6060606 72.1621622 159.698476 32.2096739"></polygon>
        </g>
        <g id="3" transform="translate(338.000000, 183.000000)">
            <polygon id="Fill-1" fill-opacity="0.65" fill="#D1D6F5" points="80.6060606 0 0.42558181 32.2096739 1.21212121 50.5135135 80.6060606 89 159.698476 48.7094595 159.698476 32.2096739"></polygon>
            <polygon id="Fill-2" fill-opacity="0.65" fill="#242C6C" points="80.6060606 72.1621622 80.6060606 89 159.698476 48.7094595 159.698476 32.2096739"></polygon>
            <polygon id="Fill-3" fill="#628CFF" points="80.7066667 0 0.42558181 32.2096739 80.6060606 72.1621622 159.698476 32.2096739"></polygon>
        </g>
        <g id="2" transform="translate(338.000000, 126.000000)">
            <polygon id="Fill-1" fill-opacity="0.65" fill="#D1D6F5" points="80.6060606 0 0.42558181 32.2096739 1.21212121 50.5135135 80.6060606 89 159.698476 48.7094595 159.698476 32.2096739"></polygon>
            <polygon id="Fill-2" fill-opacity="0.65" fill="#242C6C" points="80.6060606 72.1621622 80.6060606 89 159.698476 48.7094595 159.698476 32.2096739"></polygon>
            <polygon id="Fill-3" fill="#628CFF" points="80.7066667 0 0.42558181 32.2096739 80.6060606 72.1621622 159.698476 32.2096739"></polygon>
        </g>
        <g id="1" transform="translate(338.000000, 70.000000)">
            <polygon id="Fill-1" fill-opacity="0.65" fill="#D1D6F5" points="80.6060606 0 0.42558181 32.2096739 1.21212121 50.5135135 80.6060606 89 159.698476 48.7094595 159.698476 32.2096739"></polygon>
            <polygon id="Fill-2" fill-opacity="0.65" fill="#242C6C" points="80.6060606 72.1621622 80.6060606 89 159.698476 48.7094595 159.698476 32.2096739"></polygon>
            <polygon id="Fill-3" fill="#628CFF" points="80.7066667 0 0.42558181 32.2096739 80.6060606 72.1621622 159.698476 32.2096739"></polygon>
        </g>
        <g id="Search" transform="translate(32.000000, 262.000000)">
            <path d="M162,12.5 L282,12.5" id="Line-2-Copy-3" stroke="#628CFF" stroke-width="4" stroke-linecap="round" stroke-linejoin="round" stroke-dasharray="9"></path>
            <text id="Search-and-Tagging" font-family="IBMPlexSans, IBM Plex Sans" font-size="16" font-weight="normal" line-spacing="24" fill="#152935">
                <tspan x="0" y="16">搜尋及標記</tspan>
            </text>
        </g>
        <g id="Billing" transform="translate(131.000000, 406.000000)">
            <path d="M63,12.5 L183,12.5" id="Line-2-Copy-4" stroke="#628CFF" stroke-width="4" stroke-linecap="round" stroke-linejoin="round" stroke-dasharray="9"></path>
            <text font-family="IBMPlexSans, IBM Plex Sans" font-size="16" font-weight="normal" line-spacing="24" fill="#152935">
                <tspan x="0" y="16">計費</tspan>
            </text>
            <text id="Unified-account-mana" font-family="IBMPlexSans-Italic, IBM Plex Sans" font-size="14" font-style="italic" font-weight="normal" line-spacing="24" fill="#5A6872">
                <tspan x="0" y="38">統一帳戶管理、</tspan>
                <tspan x="0" y="62">定價、計量收集器、</tspan>
                <tspan x="0" y="86">用量報告</tspan>
            </text>
        </g>
        <g id="Provisioning" transform="translate(105.000000, 310.000000)">
            <path d="M149,12.5 L209,12.5" id="Line-2-Copy-5" stroke="#628CFF" stroke-width="4" stroke-linecap="round" stroke-linejoin="round" stroke-dasharray="9"></path>
            <text id="Provisioning-layer" font-family="IBMPlexSans, IBM Plex Sans" font-size="16" font-weight="normal" line-spacing="24" fill="#152935">
                <tspan x="0" y="16">佈建層</tspan>
            </text>
            <text id="Resource-controller" font-family="IBMPlexSans-Italic, IBM Plex Sans" font-size="14" font-style="italic" font-weight="normal" line-spacing="24" fill="#5A6872">
                <tspan x="0" y="38">資源控制器及</tspan>
                <tspan x="0" y="62">資源管理程式</tspan>
            </text>
        </g>
        <g id="Console" transform="translate(522.000000, 70.000000)">
            <path d="M0,12.5 L120,12.5" id="Line-2-Copy-3" stroke="#628CFF" stroke-width="4" stroke-linecap="round" stroke-linejoin="round" stroke-dasharray="9"></path>
            <text font-family="IBMPlexSans, IBM Plex Sans" font-size="16" font-weight="normal" line-spacing="24" fill="#152935">
                <tspan x="136" y="16">主控台</tspan>
            </text>
        </g>
        <g id="Catalog" transform="translate(522.000000, 208.000000)">
            <path d="M0,12.5 L120,12.5" id="Line-2-Copy-4" stroke="#628CFF" stroke-width="4" stroke-linecap="round" stroke-linejoin="round" stroke-dasharray="9"></path>
            <text font-family="IBMPlexSans, IBM Plex Sans" font-size="16" font-weight="normal" line-spacing="24" fill="#152935">
                <tspan x="136" y="16">型錄</tspan>
            </text>
        </g>
        <g id="IAM" transform="translate(522.000000, 139.000000)">
            <path d="M-4.97379915e-14,12.5 L59,12.5" id="Line-2-Copy-5" stroke="#628CFF" stroke-width="4" stroke-linecap="round" stroke-linejoin="round" stroke-dasharray="9"></path>
            <text id="Identity-and-access" font-family="IBMPlexSans, IBM Plex Sans" font-size="16" font-weight="normal" line-spacing="24" fill="#152935">
                <tspan x="75" y="16">Identity and Access </tspan>
                <tspan x="75" y="40">Management</tspan>
            </text>
        </g>
        <text font-family="IBMPlexSans-Light, IBM Plex Sans" font-size="20" font-weight="300" line-spacing="25" fill="#152935">
            <tspan x="32" y="51">IBM Cloud 平台</tspan>
        </text>
    </g>
</svg>
